<svg width="331" height="51" viewBox="0 0 331 51" fill="none" xmlns="http://www.w3.org/2000/svg">
<path d="M25.7845 24.955C25.5981 24.1735 25.3421 23.1163 25.0163 21.7833C24.6905 20.4503 24.3407 18.9792 23.9668 17.3699C23.5941 15.7618 23.2097 14.0843 22.8136 12.3374C22.4175 10.5906 22.0448 8.94716 21.6956 7.40723C21.3464 5.86731 21.0206 4.48865 20.7182 3.27132C20.4147 2.05277 20.1931 1.14475 20.0537 0.547038C18.5161 0.684597 17.2698 0.764864 16.3147 0.787993C15.3596 0.811123 14.579 0.822766 13.9731 0.822766C13.3672 0.822766 12.8779 0.822766 12.5052 0.822766C12.1325 0.822766 11.7834 0.845829 11.4576 0.892088C10.3383 4.56965 9.31289 8.26969 8.38121 11.9923C7.44953 15.7161 6.58751 19.3012 5.79527 22.7474C5.00304 26.1949 4.31578 29.4471 3.73333 32.5038C3.15087 35.5605 2.64984 38.2612 2.23028 40.6057C1.81195 42.9503 1.48614 44.8578 1.25291 46.3284C1.01968 47.7989 0.856833 48.6955 0.764282 49.0181C0.809941 49.0631 0.856126 49.0856 0.903018 49.0856C4.07196 49.0406 6.40178 49.0638 7.89247 49.1551C9.38316 49.2476 10.3149 49.2476 10.6875 49.1551C10.7344 49.1551 10.7696 49.1434 10.7931 49.1203C10.8165 49.0972 10.8517 49.0856 10.8986 49.0856C11.3169 48.3041 11.6427 47.4082 11.8759 46.3978C12.1092 45.3862 12.3307 44.3405 12.5405 43.2607C12.7503 42.1797 12.96 41.1456 13.1698 40.1584C13.3795 39.1699 13.6474 38.308 13.9731 37.5727C14.4853 37.5727 14.8931 37.5612 15.1967 37.5381C15.499 37.515 15.7785 37.5033 16.0352 37.5033C16.2919 37.5033 16.5831 37.5033 16.9089 37.5033C17.2346 37.5033 17.7005 37.549 18.3064 37.6403C18.6322 38.3305 18.935 39.1583 19.2152 40.1236C19.4941 41.089 19.7619 42.1 20.0186 43.1566C20.2752 44.2133 20.5312 45.2474 20.7867 46.2591C21.0434 47.2707 21.3118 48.1441 21.5919 48.8794H21.6604C23.1524 49.2007 24.7368 49.3961 26.4139 49.4655C28.0909 49.5349 29.6285 49.4314 31.0266 49.1551V49.0856L25.7845 24.955ZM18.6562 29.4361C17.7701 29.4361 16.8847 29.4476 15.9999 29.4708C15.1152 29.4939 14.2767 29.4824 13.4845 29.4361C13.8103 27.0915 14.1015 24.9082 14.3582 22.8862C14.6136 20.8642 14.8462 19.1868 15.056 17.8538C15.2658 16.5208 15.499 15.6358 15.7557 15.1988C16.0111 14.7618 16.2671 14.934 16.5238 15.7155C16.7805 16.497 17.0835 17.9908 17.4327 20.1966C17.782 22.4036 18.1897 25.4834 18.6562 29.4361ZM51.2249 24.4036C52.064 22.4729 53.0426 20.5422 54.1606 18.6115C55.2786 16.6808 56.4084 14.7502 57.5498 12.8195C58.6925 10.8888 59.7643 8.95878 60.7651 7.02931C61.7671 5.09862 62.5476 3.16794 63.1066 1.23725C61.6159 1.00717 60.032 0.938326 58.355 1.03084C56.6768 1.12214 55.0923 1.12214 53.6016 1.03084C52.623 2.40886 51.7493 3.78752 50.9805 5.16675C50.2118 6.54599 49.4664 7.92521 48.7445 9.30445C48.0226 10.6825 47.2656 12.0379 46.4733 13.3709C45.6811 14.7039 44.7957 15.9913 43.8171 17.233C43.7233 17.3243 43.6418 17.4277 43.5727 17.5434C43.5024 17.6578 43.4673 17.6918 43.4673 17.6456C43.3748 15.0259 43.3513 12.268 43.3969 9.37199C43.4438 6.47717 43.421 3.7193 43.3285 1.09838C41.8366 1.09838 40.2873 1.06435 38.6806 0.996182C37.0727 0.926794 35.4999 0.915263 33.9623 0.961521C34.0092 9.00565 33.9042 17.0151 33.6476 24.9898C33.3909 32.9646 33.449 40.9046 33.8217 48.8099C34.4276 48.9487 35.1852 49.0638 36.0947 49.1551C37.0029 49.2476 37.9463 49.2938 38.9248 49.2938C39.9034 49.2938 40.8351 49.2591 41.7199 49.1897C42.6059 49.1204 43.3748 48.9937 44.0263 48.8099C44.0263 47.5232 44.0145 46.1215 43.9911 44.6047C43.9676 43.0879 43.9331 41.5479 43.8875 39.9849C43.8406 38.4218 43.8054 36.8703 43.782 35.3304C43.7585 33.7917 43.7702 32.3558 43.8171 31.0228C44.5624 32.3095 45.3078 33.7571 46.0532 35.3651C46.7985 36.9745 47.5555 38.6062 48.3243 40.2606C49.0931 41.9149 49.8972 43.5121 50.7363 45.052C51.5754 46.592 52.4842 47.914 53.4628 49.0181C54.9535 49.0631 56.5725 49.1319 58.3199 49.2244C60.0672 49.3157 61.6862 49.2007 63.1769 48.8794L51.2249 24.4036ZM88.199 24.955C88.0127 24.1735 87.7561 23.1163 87.4291 21.7833C87.1033 20.4503 86.754 18.9792 86.3813 17.3699C86.0086 15.7618 85.6243 14.0843 85.2281 12.3374C84.832 10.5906 84.4593 8.94716 84.1101 7.40723C83.7609 5.86731 83.4345 4.48865 83.1309 3.27132C82.8286 2.05277 82.6071 1.14475 82.4664 0.547038C80.9288 0.684597 79.6824 0.764864 78.7273 0.787993C77.7722 0.811123 76.9918 0.822766 76.3859 0.822766C75.7812 0.822766 75.2924 0.822766 74.9198 0.822766C74.5458 0.822766 74.1961 0.845829 73.8703 0.892088C72.7523 4.56965 71.7274 8.26969 70.7957 11.9923C69.8641 15.7161 69.002 19.3012 68.2098 22.7474C67.4176 26.1949 66.7303 29.4471 66.1479 32.5038C65.5654 35.5605 65.0644 38.2612 64.6448 40.6057C64.2252 42.9503 63.8989 44.8578 63.6656 46.3284C63.4336 47.7989 63.2707 48.6955 63.1769 49.0181C63.2238 49.0631 63.2708 49.0856 63.3177 49.0856C66.4854 49.0406 68.8145 49.0638 70.3052 49.1551C71.7971 49.2476 72.7294 49.2476 73.1021 49.1551C73.149 49.1551 73.1836 49.1434 73.2058 49.1203C73.2292 49.0972 73.2644 49.0856 73.3113 49.0856C73.7309 48.3041 74.0572 47.4082 74.2905 46.3978C74.5225 45.3862 74.7433 44.3405 74.9531 43.2607C75.1629 42.1797 75.3727 41.1456 75.5825 40.1584C75.7923 39.1699 76.0601 38.308 76.3859 37.5727C76.8992 37.5727 77.307 37.5612 77.6093 37.5381C77.9129 37.515 78.1924 37.5033 78.4478 37.5033C78.7045 37.5033 78.9958 37.5033 79.3216 37.5033C79.6486 37.5033 80.1144 37.549 80.7191 37.6403C81.0461 38.3305 81.349 39.1583 81.6279 40.1236C81.908 41.089 82.1764 42.1 82.4331 43.1566C82.6885 44.2133 82.9445 45.2474 83.2012 46.2591C83.4579 47.2707 83.7257 48.1441 84.0046 48.8794H84.075C85.5657 49.2007 87.1494 49.3961 88.8265 49.4655C90.5047 49.5349 92.043 49.4314 93.4411 49.1551V49.0856L88.199 24.955ZM81.0689 29.4361C80.1841 29.4361 79.2987 29.4476 78.4127 29.4708C77.5279 29.4939 76.6894 29.4824 75.8971 29.4361C76.2229 27.0915 76.5141 24.9082 76.7708 22.8862C77.0274 20.8642 77.2608 19.1868 77.4706 17.8538C77.6803 16.5208 77.9129 15.6358 78.1683 15.1988C78.425 14.7618 78.6817 14.934 78.9384 15.7155C79.1938 16.497 79.4961 17.9908 79.8453 20.1966C80.1958 22.4036 80.6037 25.4834 81.0689 29.4361ZM120.209 1.23725C115.41 0.730839 110.482 0.489137 105.426 0.512266C100.371 0.535395 95.4667 0.570102 90.7145 0.61636C90.7145 0.662619 90.7262 0.685794 90.7497 0.685794C90.7731 0.685794 90.7849 0.708291 90.7849 0.753332C90.6911 1.85745 90.6443 3.00661 90.6443 4.20082C90.6443 5.39624 90.656 6.51126 90.6794 7.54599C90.7029 8.5795 90.7497 9.4639 90.8201 10.1992C90.8892 10.9357 90.9706 11.3959 91.0644 11.5797C91.3433 11.671 91.8325 11.7166 92.5322 11.7166C93.2307 11.7166 93.9995 11.7282 94.8387 11.7513C95.6766 11.7745 96.5151 11.8201 97.3542 11.8883C98.1933 11.9577 98.8924 12.1305 99.4514 12.4069L99.5217 12.4744C99.8006 18.9105 99.9752 24.4036 100.046 28.954C100.115 33.5044 100.138 37.2392 100.116 40.1584C100.092 43.0763 100.057 45.2705 100.01 46.7411C99.9635 48.2128 99.9635 49.0406 100.01 49.2244C100.85 49.0868 101.758 49.0181 102.735 49.0181C103.714 49.0181 104.704 49.0181 105.706 49.0181C106.708 49.0181 107.71 49.0066 108.712 48.9834C109.714 48.9603 110.634 48.8793 111.472 48.7405V48.6729V48.6036C111.379 43.5931 111.31 39.238 111.263 35.5386C111.216 31.8379 111.169 28.6661 111.122 26.0233C111.076 23.3805 111.042 21.2203 111.018 19.5428C110.995 17.8653 110.983 16.5093 110.983 15.4745C110.983 14.4398 110.995 13.6814 111.018 13.1993C111.042 12.716 111.076 12.36 111.122 12.1312C111.122 12.0849 111.134 12.0502 111.157 12.0271C111.181 12.0039 111.192 11.9692 111.192 11.923H111.263H111.403C113.593 11.8317 115.339 11.7628 116.644 11.7166C117.949 11.6703 119.044 11.7391 119.929 11.923C120.162 10.2686 120.291 8.4529 120.314 6.47596C120.338 4.50023 120.303 2.75404 120.209 1.23725ZM153.338 16.4734C153.99 13.0271 153.71 10.1773 152.5 7.92403C151.288 5.67196 149.563 3.97134 147.326 2.82218C146.208 2.31699 144.985 1.90367 143.657 1.5823C142.33 1.2597 140.978 1.06435 139.604 0.996182C138.229 0.926794 136.866 0.972466 135.515 1.13315C134.164 1.29384 132.929 1.60428 131.811 2.06443C129.575 2.98352 127.676 4.38523 126.115 6.26966C124.554 8.15409 123.494 10.2454 122.935 12.5437C122.376 14.8421 122.411 17.2092 123.039 19.6451C123.668 22.0822 125.055 24.3117 127.198 26.3337C127.851 26.8851 128.573 27.3679 129.366 27.7817C130.157 28.1956 131.019 28.4944 131.952 28.6783C132.93 28.8621 133.978 29.0575 135.096 29.2645C136.214 29.4714 137.251 29.7812 138.206 30.1939C139.161 30.6078 139.988 31.1483 140.687 31.8154C141.386 32.4812 141.806 33.3656 141.945 34.4685C142.225 36.0778 141.911 37.2732 141.001 38.0548C140.093 38.8363 139.021 39.2386 137.786 39.2618C136.552 39.2849 135.387 38.9282 134.291 38.1917C133.197 37.4565 132.603 36.3535 132.511 34.883C130.926 34.9293 129.155 34.8946 127.198 34.7789C125.241 34.6645 123.447 34.7224 121.817 34.9524V35.1587V35.3651C121.677 37.5722 122.072 39.5376 123.004 41.2613C123.937 42.985 125.195 44.444 126.778 45.6382C128.362 46.8336 130.168 47.7649 132.196 48.432C134.222 49.0979 136.261 49.4539 138.312 49.5001C139.755 49.5464 141.165 49.4198 142.539 49.1203C143.914 48.8221 145.196 48.351 146.384 47.707C147.572 47.063 148.632 46.2358 149.564 45.2255C150.496 44.2139 151.241 42.996 151.8 41.5717C152.359 40.3763 152.767 39.1237 153.024 37.8138C153.279 36.504 153.372 35.205 153.303 33.9171C153.233 32.6304 152.988 31.3783 152.568 30.161C152.15 28.9424 151.521 27.8042 150.682 26.7464C149.331 24.7706 147.595 23.1394 145.475 21.8527C143.355 20.5648 141.06 19.7833 138.591 19.5081C137.613 19.3706 136.704 19.1174 135.865 18.7485C135.026 18.3809 134.42 17.6456 134.047 16.5427C134.001 16.2213 133.967 15.911 133.943 15.6115C133.92 15.3133 133.954 15.0034 134.047 14.682C134.233 13.3941 134.851 12.5207 135.9 12.0617C136.949 11.6016 138.032 11.4865 139.15 11.7166C140.268 11.9466 141.223 12.4756 142.016 13.3034C142.808 14.13 143.064 15.1641 142.784 16.4058C144.415 16.8648 146.163 17.0601 148.026 16.9919C149.889 16.9225 151.637 16.7497 153.268 16.4734H153.338ZM187.654 3.03037C187.095 2.70778 186.373 2.50078 185.489 2.40948C184.603 2.31696 183.67 2.2939 182.692 2.34016C181.713 2.38642 180.746 2.46668 179.791 2.58111C178.836 2.69554 178.056 2.77592 177.45 2.82218C177.31 8.15409 177.229 13.6698 177.205 19.3694C177.182 25.0689 177.054 30.6766 176.822 36.1923C176.589 37.2502 176.076 38.0779 175.284 38.6757C174.492 39.2734 173.63 39.5948 172.698 39.6398C171.766 39.6861 170.869 39.4566 170.007 38.9514C169.145 38.445 168.551 37.6403 168.224 36.5374C167.293 25.092 167.083 13.808 167.595 2.68521V2.61589C166.896 2.43207 166.128 2.30545 165.288 2.23606C164.451 2.16789 163.589 2.13375 162.703 2.13375C161.818 2.13375 160.944 2.15625 160.082 2.20129C159.22 2.24755 158.44 2.27072 157.742 2.27072H157.672L157.742 2.34016C157.834 8.40734 157.811 14.5208 157.672 20.6805C157.531 26.839 157.461 32.9523 157.461 39.0207C157.554 41.134 158.172 42.9382 159.313 44.4331C160.455 45.9267 161.876 47.1214 163.576 48.0174C165.278 48.9134 167.177 49.5342 169.274 49.88C171.37 50.2245 173.397 50.3048 175.354 50.121C178.708 49.7984 181.364 48.5799 183.321 46.4653C185.278 44.3521 186.443 41.778 186.816 38.7432C187.469 32.8148 187.841 26.8511 187.934 20.8521C188.028 14.8543 187.934 8.91373 187.654 3.03037ZM210.579 24.4036C211.418 22.4729 212.397 20.5422 213.515 18.6115C214.633 16.6808 215.763 14.7502 216.904 12.8195C218.046 10.8888 219.117 8.95878 220.119 7.02931C221.121 5.09862 221.902 3.16794 222.461 1.23725C220.97 1.00717 219.386 0.938326 217.707 1.03084C216.03 1.12214 214.447 1.12214 212.956 1.03084C211.977 2.40886 211.104 3.78752 210.335 5.16675C209.566 6.54599 208.821 7.92521 208.099 9.30445C207.376 10.6825 206.618 12.0379 205.826 13.3709C205.035 14.7039 204.15 15.9913 203.171 17.233C203.078 17.3243 202.996 17.4277 202.925 17.5434C202.856 17.6578 202.822 17.6918 202.822 17.6456C202.728 15.0259 202.704 12.268 202.751 9.37199C202.798 6.47717 202.775 3.7193 202.681 1.09838C201.19 1.09838 199.641 1.06435 198.033 0.996182C196.426 0.926794 194.854 0.915263 193.317 0.961521C193.362 9.00565 193.257 17.0151 193.002 24.9898C192.745 32.9646 192.803 40.9046 193.176 48.8099C193.782 48.9487 194.539 49.0638 195.447 49.1551C196.357 49.2476 197.301 49.2938 198.279 49.2938C199.257 49.2938 200.188 49.2591 201.074 49.1897C201.959 49.1204 202.728 48.9937 203.381 48.8099C203.381 47.5232 203.369 46.1215 203.345 44.6047C203.322 43.0879 203.287 41.5479 203.24 39.9849C203.194 38.4218 203.16 36.8703 203.136 35.3304C203.113 33.7917 203.125 32.3558 203.171 31.0228C203.917 32.3095 204.662 33.7571 205.408 35.3651C206.153 36.9745 206.91 38.6062 207.679 40.2606C208.447 41.9149 209.251 43.5121 210.091 45.052C210.928 46.592 211.837 47.914 212.815 49.0181C214.307 49.0631 215.927 49.1319 217.674 49.2244C219.421 49.3157 221.041 49.2007 222.531 48.8794L210.579 24.4036ZM236.09 0.685794C233.993 0.730835 232.398 0.719192 231.303 0.651021C230.207 0.581633 229.241 0.523864 228.403 0.477605C228.076 0.477605 227.575 0.443465 226.9 0.375294C226.223 0.305906 225.769 0.294374 225.535 0.340633V0.477605C225.117 4.33898 224.919 8.28072 224.941 12.3028C224.965 16.3249 225.035 20.3925 225.152 24.5059C225.268 28.6205 225.35 32.7691 225.397 36.9519C225.443 41.1346 225.303 45.2943 224.976 49.4308C225.443 49.2932 226.305 49.2585 227.562 49.3267C228.821 49.3961 230.138 49.4539 231.512 49.5001C232.887 49.5464 234.169 49.5349 235.357 49.4655C236.544 49.3961 237.324 49.1776 237.697 48.8099C237.465 44.9035 237.325 40.9508 237.278 36.9519C237.231 32.9529 237.243 28.9424 237.314 24.9204C237.383 20.8983 237.476 16.8878 237.593 12.8889C237.709 8.88997 237.767 4.9142 237.767 0.961521V0.685794H236.09Z" fill="black"/>
<path d="M285.369 0.201913V0.685828C285.183 6.15529 285.124 11.6022 285.193 17.0266C285.264 22.4498 285.345 27.7355 285.438 32.8836C285.392 33.5726 285.276 34.2275 285.09 34.8483C284.903 35.4692 284.635 36.0206 284.285 36.5027C283.935 36.986 283.505 37.3426 282.992 37.5727C282.48 37.8016 281.874 37.8472 281.175 37.7097C280.337 37.6634 279.661 37.3645 279.148 36.8131C278.636 36.2616 278.217 35.5835 277.891 34.7789C277.564 33.9754 277.343 33.1252 277.227 32.228C277.109 31.3321 277.028 30.5396 276.982 29.8506V29.5054V29.4361C276.143 29.2985 275.222 29.1834 274.22 29.0909C273.218 28.9996 272.228 28.954 271.25 28.954C270.272 28.954 269.329 28.9771 268.419 29.0234C267.511 29.0684 266.754 29.1603 266.148 29.2991C266.056 31.0448 266.091 32.9632 266.254 35.0546C266.417 37.146 266.801 39.1455 267.407 41.0531C268.013 42.9606 268.898 44.6503 270.063 46.122C271.228 47.5926 272.766 48.6036 274.676 49.155C276.772 49.6152 278.986 49.7873 281.315 49.6717C283.645 49.5573 285.789 49.0174 287.746 48.0521C289.888 47.2706 291.507 46.0526 292.603 44.3982C293.698 42.7427 294.466 40.9039 294.909 38.8819C295.351 36.8599 295.595 34.7571 295.642 32.5732C295.689 30.3905 295.76 28.3563 295.853 26.4706C295.946 22.0128 295.899 17.5775 295.713 13.1646C295.526 8.75182 295.48 4.38524 295.572 0.0649414L285.369 0.201913ZM330.59 16.4734C331.241 13.0271 330.961 10.1773 329.749 7.92405C328.539 5.67199 326.815 3.97137 324.578 2.82221C323.46 2.31702 322.237 1.90371 320.909 1.58233C319.581 1.25974 318.23 1.06439 316.855 0.996216C315.48 0.926828 314.117 0.9725 312.766 1.13319C311.415 1.29388 310.18 1.60431 309.062 2.06446C306.825 2.98355 304.927 4.38526 303.367 6.26969C301.806 8.15411 300.746 10.2454 300.187 12.5438C299.626 14.8421 299.661 17.2092 300.29 19.6451C300.92 22.0822 302.306 24.3117 304.45 26.3337C305.101 26.8851 305.823 27.3678 306.615 27.7817C307.408 28.1956 308.269 28.4944 309.201 28.6782C310.18 28.862 311.229 29.0575 312.348 29.2645C313.466 29.4714 314.502 29.7812 315.458 30.1938C316.413 30.6077 317.239 31.1482 317.938 31.8153C318.638 32.4812 319.057 33.3656 319.197 34.4685C319.476 36.0778 319.161 37.2732 318.253 38.0547C317.344 38.8362 316.273 39.2386 315.037 39.2617C313.803 39.2849 312.639 38.9282 311.543 38.1917C310.448 37.4564 309.854 36.3535 309.76 34.883C308.177 34.9292 306.407 34.8945 304.45 34.7789C302.492 34.6645 300.698 34.7223 299.067 34.9524V35.1587V35.3651C298.927 37.5721 299.323 39.5375 300.255 41.2612C301.187 42.985 302.445 44.4439 304.029 45.6381C305.614 46.8335 307.42 47.7648 309.447 48.4319C311.474 49.0978 313.511 49.4538 315.561 49.5001C317.006 49.5463 318.416 49.4197 319.791 49.1202C321.166 48.822 322.447 48.3509 323.635 47.7069C324.822 47.063 325.883 46.2358 326.815 45.2254C327.747 44.2138 328.492 42.9959 329.052 41.5716C329.611 40.3762 330.018 39.1236 330.275 37.8138C330.53 36.5039 330.624 35.205 330.555 33.917C330.484 32.6303 330.239 31.3783 329.82 30.161C329.4 28.9424 328.771 27.8042 327.933 26.7464C326.582 24.7706 324.847 23.1394 322.727 21.8527C320.607 20.5648 318.311 19.7833 315.841 19.5081C314.863 19.3706 313.955 19.1173 313.116 18.7485C312.277 18.3809 311.671 17.6456 311.298 16.5427C311.251 16.2213 311.217 15.911 311.195 15.6115C311.171 15.3133 311.206 15.0034 311.298 14.682C311.485 13.3941 312.102 12.5207 313.151 12.0617C314.199 11.6016 315.282 11.4865 316.402 11.7166C317.52 11.9466 318.475 12.4756 319.267 13.3034C320.059 14.13 320.315 15.1641 320.035 16.4058C321.667 16.8648 323.414 17.0601 325.277 16.9919C327.141 16.9225 328.888 16.7497 330.519 16.4734H330.59Z" fill="#FF0037"/>
</svg>
