<?xml version="1.0" encoding="UTF-8" standalone="no"?>
<!-- Generator: Gravit.io -->
<svg xmlns="http://www.w3.org/2000/svg" xmlns:xlink="http://www.w3.org/1999/xlink" style="isolation:isolate" viewBox="113.421 676.374 287 53.739" width="287pt" height="53.739pt"><g><g><g><g><g><path d=" M 284.066 687.049 L 284.066 687.367 L 284.066 687.367 Q 283.885 692.772 283.953 698.133 L 283.953 698.133 L 283.953 698.133 Q 284.021 703.493 284.112 708.58 L 284.112 708.58 L 284.112 708.58 Q 284.066 709.262 283.885 709.875 L 283.885 709.875 L 283.885 709.875 Q 283.703 710.488 283.362 710.965 L 283.362 710.965 L 283.362 710.965 Q 283.022 711.442 282.522 711.669 L 282.522 711.669 L 282.522 711.669 Q 282.022 711.897 281.341 711.76 L 281.341 711.76 L 281.341 711.76 Q 280.523 711.715 280.023 711.17 L 280.023 711.17 L 280.023 711.17 Q 279.524 710.625 279.206 709.83 L 279.206 709.83 L 279.206 709.83 Q 278.888 709.035 278.774 708.149 L 278.774 708.149 L 278.774 708.149 Q 278.661 707.263 278.615 706.582 L 278.615 706.582 L 278.615 706.355 L 278.615 706.309 L 278.615 706.309 Q 277.798 706.173 276.821 706.082 L 276.821 706.082 L 276.821 706.082 Q 275.844 705.991 274.89 705.991 L 274.89 705.991 L 274.89 705.991 Q 273.936 705.991 273.051 706.037 L 273.051 706.037 L 273.051 706.037 Q 272.165 706.082 271.574 706.218 L 271.574 706.218 L 271.574 706.218 Q 271.483 707.945 271.642 710.011 L 271.642 710.011 L 271.642 710.011 Q 271.801 712.078 272.392 713.963 L 272.392 713.963 L 272.392 713.963 Q 272.982 715.849 274.118 717.302 L 274.118 717.302 L 274.118 717.302 Q 275.254 718.756 277.116 719.301 L 277.116 719.301 L 277.116 719.301 Q 279.16 719.755 281.432 719.642 L 281.432 719.642 L 281.432 719.642 Q 283.703 719.528 285.611 718.574 L 285.611 718.574 L 285.611 718.574 Q 287.7 717.802 288.768 716.167 L 288.768 716.167 L 288.768 716.167 Q 289.835 714.531 290.267 712.533 L 290.267 712.533 L 290.267 712.533 Q 290.698 710.534 290.744 708.376 L 290.744 708.376 L 290.744 708.376 Q 290.789 706.218 290.88 704.356 L 290.88 704.356 L 290.88 704.356 Q 290.971 699.95 290.789 695.589 L 290.789 695.589 L 290.789 695.589 Q 290.608 691.228 290.698 686.958 L 290.698 686.958 L 284.066 687.049 L 284.066 687.049 Z  M 313.457 697.769 L 313.457 697.769 Q 314.093 694.362 312.912 692.136 L 312.912 692.136 L 312.912 692.136 Q 311.731 689.91 309.55 688.775 L 309.55 688.775 L 309.55 688.775 Q 308.46 688.275 307.165 687.957 L 307.165 687.957 L 307.165 687.957 Q 305.871 687.639 304.531 687.571 L 304.531 687.571 L 304.531 687.571 Q 303.191 687.503 301.873 687.662 L 301.873 687.662 L 301.873 687.662 Q 300.556 687.821 299.466 688.275 L 299.466 688.275 L 299.466 688.275 Q 297.285 689.184 295.763 691.046 L 295.763 691.046 L 295.763 691.046 Q 294.242 692.909 293.697 695.18 L 293.697 695.18 L 293.697 695.18 Q 293.151 697.451 293.765 699.859 L 293.765 699.859 L 293.765 699.859 Q 294.378 702.266 296.468 704.265 L 296.468 704.265 L 296.468 704.265 Q 297.104 704.81 297.876 705.219 L 297.876 705.219 L 297.876 705.219 Q 298.648 705.628 299.557 705.81 L 299.557 705.81 L 299.557 705.81 Q 300.51 705.991 301.601 706.196 L 301.601 706.196 L 301.601 706.196 Q 302.691 706.4 303.622 706.809 L 303.622 706.809 L 303.622 706.809 Q 304.553 707.218 305.235 707.876 L 305.235 707.876 L 305.235 707.876 Q 305.916 708.535 306.052 709.625 L 306.052 709.625 L 306.052 709.625 Q 306.325 711.215 305.439 711.987 L 305.439 711.987 L 305.439 711.987 Q 304.553 712.76 303.35 712.782 L 303.35 712.782 L 303.35 712.782 Q 302.146 712.805 301.078 712.078 L 301.078 712.078 L 301.078 712.078 Q 300.011 711.351 299.92 709.898 L 299.92 709.898 L 299.92 709.898 Q 298.375 709.943 296.468 709.83 L 296.468 709.83 L 296.468 709.83 Q 294.56 709.716 292.97 709.943 L 292.97 709.943 L 292.97 710.08 L 292.97 710.216 L 292.97 710.216 Q 292.834 712.396 293.742 714.1 L 293.742 714.1 L 293.742 714.1 Q 294.651 715.803 296.195 716.984 L 296.195 716.984 L 296.195 716.984 Q 297.739 718.165 299.716 718.824 L 299.716 718.824 L 299.716 718.824 Q 301.692 719.483 303.69 719.528 L 303.69 719.528 L 303.69 719.528 Q 305.098 719.574 306.439 719.278 L 306.439 719.278 L 306.439 719.278 Q 307.779 718.983 308.937 718.347 L 308.937 718.347 L 308.937 718.347 Q 310.095 717.711 311.004 716.712 L 311.004 716.712 L 311.004 716.712 Q 311.912 715.712 312.457 714.304 L 312.457 714.304 L 312.457 714.304 Q 313.003 713.123 313.252 711.828 L 313.252 711.828 L 313.252 711.828 Q 313.502 710.534 313.434 709.262 L 313.434 709.262 L 313.434 709.262 Q 313.366 707.99 312.957 706.786 L 312.957 706.786 L 312.957 706.786 Q 312.548 705.582 311.731 704.538 L 311.731 704.538 L 311.731 704.538 Q 310.413 702.584 308.346 701.312 L 308.346 701.312 L 308.346 701.312 Q 306.28 700.04 303.872 699.768 L 303.872 699.768 L 303.872 699.768 Q 302.918 699.632 302.1 699.268 L 302.1 699.268 L 302.1 699.268 Q 301.283 698.905 300.919 697.815 L 300.919 697.815 L 300.919 697.815 Q 300.874 697.497 300.851 697.201 L 300.851 697.201 L 300.851 697.201 Q 300.828 696.906 300.919 696.588 L 300.919 696.588 L 300.919 696.588 Q 301.101 695.316 302.123 694.862 L 302.123 694.862 L 302.123 694.862 Q 303.145 694.408 304.235 694.635 L 304.235 694.635 L 304.235 694.635 Q 305.326 694.862 306.098 695.68 L 306.098 695.68 L 306.098 695.68 Q 306.87 696.497 306.598 697.724 L 306.598 697.724 L 306.598 697.724 Q 308.187 698.178 310.004 698.11 L 310.004 698.11 L 310.004 698.11 Q 311.821 698.042 313.411 697.769 L 313.411 697.769 L 313.457 697.769 L 313.457 697.769 Z " fill="rgb(255,0,55)"/><path d=" M 128.955 702.994 L 128.955 702.994 Q 128.783 702.265 128.483 701.02 L 128.483 701.02 L 128.483 701.02 Q 128.182 699.776 127.839 698.274 L 127.839 698.274 L 127.839 698.274 Q 127.496 696.772 127.131 695.142 L 127.131 695.142 L 127.131 695.142 Q 126.766 693.511 126.444 692.074 L 126.444 692.074 L 126.444 692.074 Q 126.123 690.636 125.844 689.499 L 125.844 689.499 L 125.844 689.499 Q 125.565 688.362 125.436 687.804 L 125.436 687.804 L 125.436 687.804 Q 124.02 687.933 123.14 687.954 L 123.14 687.954 L 123.14 687.954 Q 122.261 687.976 121.703 687.976 L 121.703 687.976 L 121.703 687.976 Q 121.145 687.976 120.802 687.976 L 120.802 687.976 L 120.802 687.976 Q 120.458 687.976 120.158 688.019 L 120.158 688.019 L 120.158 688.019 Q 119.128 691.451 118.27 694.927 L 118.27 694.927 L 118.27 694.927 Q 117.412 698.403 116.682 701.621 L 116.682 701.621 L 116.682 701.621 Q 115.953 704.839 115.416 707.693 L 115.416 707.693 L 115.416 707.693 Q 114.88 710.546 114.494 712.735 L 114.494 712.735 L 114.494 712.735 Q 114.108 714.923 113.893 716.296 L 113.893 716.296 L 113.893 716.296 Q 113.679 717.669 113.593 717.97 L 113.593 717.97 L 113.593 717.97 Q 113.636 718.013 113.679 718.013 L 113.679 718.013 L 113.679 718.013 Q 116.596 717.97 117.97 718.056 L 117.97 718.056 L 117.97 718.056 Q 119.343 718.141 119.686 718.056 L 119.686 718.056 L 119.686 718.056 Q 119.729 718.056 119.75 718.034 L 119.75 718.034 L 119.75 718.034 Q 119.772 718.013 119.815 718.013 L 119.815 718.013 L 119.815 718.013 Q 120.201 717.283 120.415 716.339 L 120.415 716.339 L 120.415 716.339 Q 120.63 715.395 120.823 714.387 L 120.823 714.387 L 120.823 714.387 Q 121.016 713.378 121.209 712.456 L 121.209 712.456 L 121.209 712.456 Q 121.402 711.533 121.703 710.847 L 121.703 710.847 L 121.703 710.847 Q 122.175 710.847 122.454 710.825 L 122.454 710.825 L 122.454 710.825 Q 122.733 710.804 122.969 710.804 L 122.969 710.804 L 122.969 710.804 Q 123.205 710.804 123.505 710.804 L 123.505 710.804 L 123.505 710.804 Q 123.805 710.804 124.363 710.89 L 124.363 710.89 L 124.363 710.89 Q 124.664 711.533 124.921 712.434 L 124.921 712.434 L 124.921 712.434 Q 125.178 713.335 125.414 714.322 L 125.414 714.322 L 125.414 714.322 Q 125.651 715.309 125.887 716.253 L 125.887 716.253 L 125.887 716.253 Q 126.123 717.197 126.38 717.884 L 126.38 717.884 L 126.423 717.884 L 126.423 717.884 Q 127.796 718.184 129.341 718.249 L 129.341 718.249 L 129.341 718.249 Q 130.886 718.313 132.173 718.056 L 132.173 718.056 L 132.173 718.013 L 128.955 702.994 L 128.955 702.994 Z  M 124.578 705.783 L 124.578 705.783 Q 123.762 705.783 122.947 705.805 L 122.947 705.805 L 122.947 705.805 Q 122.132 705.826 121.402 705.783 L 121.402 705.783 L 121.402 705.783 Q 121.703 703.595 121.939 701.707 L 121.939 701.707 L 121.939 701.707 Q 122.175 699.819 122.368 698.574 L 122.368 698.574 L 122.368 698.574 Q 122.561 697.33 122.797 696.922 L 122.797 696.922 L 122.797 696.922 Q 123.033 696.515 123.269 697.244 L 123.269 697.244 L 123.269 697.244 Q 123.505 697.974 123.827 700.033 L 123.827 700.033 L 123.827 700.033 Q 124.149 702.093 124.578 705.783 L 124.578 705.783 L 124.578 705.783 Z  M 144.574 702.651 L 144.574 702.651 Q 145.346 700.849 146.376 699.046 L 146.376 699.046 L 146.376 699.046 Q 147.406 697.244 148.457 695.442 L 148.457 695.442 L 148.457 695.442 Q 149.508 693.64 150.431 691.838 L 150.431 691.838 L 150.431 691.838 Q 151.354 690.035 151.869 688.233 L 151.869 688.233 L 151.869 688.233 Q 150.495 688.019 148.951 688.104 L 148.951 688.104 L 148.951 688.104 Q 147.406 688.19 146.033 688.104 L 146.033 688.104 L 146.033 688.104 Q 145.132 689.392 144.424 690.679 L 144.424 690.679 L 144.424 690.679 Q 143.716 691.966 143.051 693.254 L 143.051 693.254 L 143.051 693.254 Q 142.385 694.541 141.656 695.785 L 141.656 695.785 L 141.656 695.785 Q 140.926 697.03 140.025 698.188 L 140.025 698.188 L 140.025 698.188 Q 139.94 698.274 139.875 698.381 L 139.875 698.381 L 139.875 698.381 Q 139.811 698.489 139.811 698.446 L 139.811 698.446 L 139.811 698.446 Q 139.725 696 139.768 693.297 L 139.768 693.297 L 139.768 693.297 Q 139.811 690.593 139.725 688.147 L 139.725 688.147 L 139.725 688.147 Q 138.352 688.147 136.871 688.083 L 136.871 688.083 L 136.871 688.083 Q 135.391 688.019 133.975 688.061 L 133.975 688.061 L 133.975 688.061 Q 134.018 695.571 133.782 703.016 L 133.782 703.016 L 133.782 703.016 Q 133.546 710.461 133.889 717.841 L 133.889 717.841 L 133.889 717.841 Q 134.447 717.97 135.284 718.056 L 135.284 718.056 L 135.284 718.056 Q 136.121 718.141 137.022 718.141 L 137.022 718.141 L 137.022 718.141 Q 137.923 718.141 138.738 718.077 L 138.738 718.077 L 138.738 718.077 Q 139.553 718.013 140.154 717.841 L 140.154 717.841 L 140.154 717.841 Q 140.154 716.64 140.133 715.224 L 140.133 715.224 L 140.133 715.224 Q 140.111 713.807 140.068 712.349 L 140.068 712.349 L 140.068 712.349 Q 140.025 710.89 140.004 709.452 L 140.004 709.452 L 140.004 709.452 Q 139.982 708.015 140.025 706.77 L 140.025 706.77 L 140.025 706.77 Q 140.712 707.972 141.398 709.474 L 141.398 709.474 L 141.398 709.474 Q 142.085 710.975 142.793 712.52 L 142.793 712.52 L 142.793 712.52 Q 143.501 714.065 144.273 715.502 L 144.273 715.502 L 144.273 715.502 Q 145.046 716.94 145.947 717.97 L 145.947 717.97 L 145.947 717.97 Q 147.32 718.013 148.929 718.098 L 148.929 718.098 L 148.929 718.098 Q 150.538 718.184 151.911 717.884 L 151.911 717.884 L 144.574 702.651 L 144.574 702.651 Z  M 167.273 702.994 L 167.273 702.994 Q 167.102 702.265 166.801 701.02 L 166.801 701.02 L 166.801 701.02 Q 166.501 699.776 166.158 698.274 L 166.158 698.274 L 166.158 698.274 Q 165.814 696.772 165.45 695.142 L 165.45 695.142 L 165.45 695.142 Q 165.085 693.511 164.763 692.074 L 164.763 692.074 L 164.763 692.074 Q 164.441 690.636 164.162 689.499 L 164.162 689.499 L 164.162 689.499 Q 163.883 688.362 163.755 687.804 L 163.755 687.804 L 163.755 687.804 Q 162.339 687.933 161.459 687.954 L 161.459 687.954 L 161.459 687.954 Q 160.579 687.976 160.021 687.976 L 160.021 687.976 L 160.021 687.976 Q 159.464 687.976 159.12 687.976 L 159.12 687.976 L 159.12 687.976 Q 158.777 687.976 158.477 688.019 L 158.477 688.019 L 158.477 688.019 Q 157.447 691.451 156.589 694.927 L 156.589 694.927 L 156.589 694.927 Q 155.73 698.403 155.001 701.621 L 155.001 701.621 L 155.001 701.621 Q 154.271 704.839 153.735 707.693 L 153.735 707.693 L 153.735 707.693 Q 153.199 710.546 152.813 712.735 L 152.813 712.735 L 152.813 712.735 Q 152.426 714.923 152.212 716.296 L 152.212 716.296 L 152.212 716.296 Q 151.997 717.669 151.911 717.97 L 151.911 717.97 L 151.911 717.97 Q 151.954 718.013 151.997 718.013 L 151.997 718.013 L 151.997 718.013 Q 154.915 717.97 156.288 718.056 L 156.288 718.056 L 156.288 718.056 Q 157.661 718.141 158.005 718.056 L 158.005 718.056 L 158.005 718.056 Q 158.048 718.056 158.069 718.034 L 158.069 718.034 L 158.069 718.034 Q 158.09 718.013 158.133 718.013 L 158.133 718.013 L 158.133 718.013 Q 158.52 717.283 158.734 716.339 L 158.734 716.339 L 158.734 716.339 Q 158.949 715.395 159.142 714.387 L 159.142 714.387 L 159.142 714.387 Q 159.335 713.378 159.528 712.456 L 159.528 712.456 L 159.528 712.456 Q 159.721 711.533 160.021 710.847 L 160.021 710.847 L 160.021 710.847 Q 160.493 710.847 160.772 710.825 L 160.772 710.825 L 160.772 710.825 Q 161.051 710.804 161.287 710.804 L 161.287 710.804 L 161.287 710.804 Q 161.523 710.804 161.824 710.804 L 161.824 710.804 L 161.824 710.804 Q 162.124 710.804 162.682 710.89 L 162.682 710.89 L 162.682 710.89 Q 162.982 711.533 163.24 712.434 L 163.24 712.434 L 163.24 712.434 Q 163.497 713.335 163.733 714.322 L 163.733 714.322 L 163.733 714.322 Q 163.969 715.309 164.205 716.253 L 164.205 716.253 L 164.205 716.253 Q 164.441 717.197 164.699 717.884 L 164.699 717.884 L 164.742 717.884 L 164.742 717.884 Q 166.115 718.184 167.659 718.249 L 167.659 718.249 L 167.659 718.249 Q 169.204 718.313 170.491 718.056 L 170.491 718.056 L 170.491 718.013 L 167.273 702.994 L 167.273 702.994 Z  M 162.896 705.783 L 162.896 705.783 Q 162.081 705.783 161.266 705.805 L 161.266 705.805 L 161.266 705.805 Q 160.451 705.826 159.721 705.783 L 159.721 705.783 L 159.721 705.783 Q 160.021 703.595 160.257 701.707 L 160.257 701.707 L 160.257 701.707 Q 160.493 699.819 160.687 698.574 L 160.687 698.574 L 160.687 698.574 Q 160.88 697.33 161.116 696.922 L 161.116 696.922 L 161.116 696.922 Q 161.352 696.515 161.588 697.244 L 161.588 697.244 L 161.588 697.244 Q 161.824 697.974 162.145 700.033 L 162.145 700.033 L 162.145 700.033 Q 162.467 702.093 162.896 705.783 L 162.896 705.783 L 162.896 705.783 Z  M 186.926 688.233 L 186.926 688.233 Q 182.506 687.761 177.851 687.783 L 177.851 687.783 L 177.851 687.783 Q 173.195 687.804 168.818 687.847 L 168.818 687.847 L 168.818 687.847 Q 168.818 687.89 168.839 687.89 L 168.839 687.89 L 168.839 687.89 Q 168.861 687.89 168.861 687.933 L 168.861 687.933 L 168.861 687.933 Q 168.775 688.963 168.775 690.078 L 168.775 690.078 L 168.775 690.078 Q 168.775 691.194 168.797 692.159 L 168.797 692.159 L 168.797 692.159 Q 168.818 693.125 168.882 693.811 L 168.882 693.811 L 168.882 693.811 Q 168.947 694.498 169.033 694.67 L 169.033 694.67 L 169.033 694.67 Q 169.29 694.755 169.934 694.755 L 169.934 694.755 L 169.934 694.755 Q 170.577 694.755 171.35 694.777 L 171.35 694.777 L 171.35 694.777 Q 172.122 694.798 172.894 694.863 L 172.894 694.863 L 172.894 694.863 Q 173.667 694.927 174.182 695.185 L 174.182 695.185 L 174.225 695.227 L 174.225 695.227 Q 174.482 701.235 174.546 705.483 L 174.546 705.483 L 174.546 705.483 Q 174.611 709.731 174.589 712.456 L 174.589 712.456 L 174.589 712.456 Q 174.568 715.181 174.525 716.554 L 174.525 716.554 L 174.525 716.554 Q 174.482 717.927 174.525 718.098 L 174.525 718.098 L 174.525 718.098 Q 175.297 717.97 176.198 717.97 L 176.198 717.97 L 176.198 717.97 Q 177.1 717.97 178.022 717.97 L 178.022 717.97 L 178.022 717.97 Q 178.945 717.97 179.867 717.948 L 179.867 717.948 L 179.867 717.948 Q 180.79 717.927 181.562 717.798 L 181.562 717.798 L 181.562 717.755 L 181.562 717.712 L 181.562 717.712 Q 181.476 713.035 181.434 709.581 L 181.434 709.581 L 181.434 709.581 Q 181.391 706.127 181.348 703.659 L 181.348 703.659 L 181.348 703.659 Q 181.305 701.192 181.283 699.626 L 181.283 699.626 L 181.283 699.626 Q 181.262 698.06 181.262 697.094 L 181.262 697.094 L 181.262 697.094 Q 181.262 696.129 181.283 695.678 L 181.283 695.678 L 181.283 695.678 Q 181.305 695.227 181.348 695.013 L 181.348 695.013 L 181.348 695.013 Q 181.348 694.97 181.369 694.949 L 181.369 694.949 L 181.369 694.949 Q 181.391 694.927 181.391 694.884 L 181.391 694.884 L 181.434 694.884 L 181.519 694.884 L 181.519 694.884 Q 183.536 694.798 184.738 694.755 L 184.738 694.755 L 184.738 694.755 Q 185.939 694.713 186.754 694.884 L 186.754 694.884 L 186.754 694.884 Q 186.969 693.339 186.99 691.494 L 186.99 691.494 L 186.99 691.494 Q 187.012 689.649 186.926 688.233 L 186.926 688.233 L 186.926 688.233 Z  M 207.265 697.716 L 207.265 697.716 Q 207.866 694.498 206.75 692.395 L 206.75 692.395 L 206.75 692.395 Q 205.635 690.293 203.575 689.22 L 203.575 689.22 L 203.575 689.22 Q 202.545 688.748 201.322 688.448 L 201.322 688.448 L 201.322 688.448 Q 200.099 688.147 198.834 688.083 L 198.834 688.083 L 198.834 688.083 Q 197.568 688.019 196.323 688.169 L 196.323 688.169 L 196.323 688.169 Q 195.079 688.319 194.049 688.748 L 194.049 688.748 L 194.049 688.748 Q 191.989 689.606 190.552 691.366 L 190.552 691.366 L 190.552 691.366 Q 189.114 693.125 188.599 695.27 L 188.599 695.27 L 188.599 695.27 Q 188.085 697.416 188.664 699.69 L 188.664 699.69 L 188.664 699.69 Q 189.243 701.964 191.217 703.852 L 191.217 703.852 L 191.217 703.852 Q 191.818 704.367 192.547 704.753 L 192.547 704.753 L 192.547 704.753 Q 193.277 705.14 194.135 705.311 L 194.135 705.311 L 194.135 705.311 Q 195.036 705.483 196.066 705.676 L 196.066 705.676 L 196.066 705.676 Q 197.096 705.869 197.975 706.255 L 197.975 706.255 L 197.975 706.255 Q 198.855 706.642 199.499 707.264 L 199.499 707.264 L 199.499 707.264 Q 200.142 707.886 200.271 708.916 L 200.271 708.916 L 200.271 708.916 Q 200.528 710.418 199.692 711.147 L 199.692 711.147 L 199.692 711.147 Q 198.855 711.877 197.718 711.898 L 197.718 711.898 L 197.718 711.898 Q 196.581 711.919 195.572 711.233 L 195.572 711.233 L 195.572 711.233 Q 194.564 710.546 194.478 709.173 L 194.478 709.173 L 194.478 709.173 Q 193.019 709.216 191.217 709.109 L 191.217 709.109 L 191.217 709.109 Q 189.415 709.002 187.913 709.216 L 187.913 709.216 L 187.913 709.345 L 187.913 709.474 L 187.913 709.474 Q 187.784 711.533 188.642 713.142 L 188.642 713.142 L 188.642 713.142 Q 189.501 714.752 190.96 715.867 L 190.96 715.867 L 190.96 715.867 Q 192.418 716.983 194.285 717.605 L 194.285 717.605 L 194.285 717.605 Q 196.152 718.227 198.04 718.27 L 198.04 718.27 L 198.04 718.27 Q 199.37 718.313 200.636 718.034 L 200.636 718.034 L 200.636 718.034 Q 201.902 717.755 202.996 717.154 L 202.996 717.154 L 202.996 717.154 Q 204.09 716.554 204.948 715.61 L 204.948 715.61 L 204.948 715.61 Q 205.806 714.666 206.321 713.335 L 206.321 713.335 L 206.321 713.335 Q 206.836 712.22 207.072 710.997 L 207.072 710.997 L 207.072 710.997 Q 207.308 709.774 207.244 708.572 L 207.244 708.572 L 207.244 708.572 Q 207.18 707.371 206.793 706.234 L 206.793 706.234 L 206.793 706.234 Q 206.407 705.097 205.635 704.11 L 205.635 704.11 L 205.635 704.11 Q 204.39 702.265 202.438 701.063 L 202.438 701.063 L 202.438 701.063 Q 200.486 699.862 198.211 699.604 L 198.211 699.604 L 198.211 699.604 Q 197.31 699.476 196.538 699.132 L 196.538 699.132 L 196.538 699.132 Q 195.765 698.789 195.422 697.759 L 195.422 697.759 L 195.422 697.759 Q 195.379 697.459 195.358 697.18 L 195.358 697.18 L 195.358 697.18 Q 195.336 696.901 195.422 696.601 L 195.422 696.601 L 195.422 696.601 Q 195.594 695.399 196.559 694.97 L 196.559 694.97 L 196.559 694.97 Q 197.525 694.541 198.555 694.755 L 198.555 694.755 L 198.555 694.755 Q 199.584 694.97 200.314 695.742 L 200.314 695.742 L 200.314 695.742 Q 201.043 696.515 200.786 697.673 L 200.786 697.673 L 200.786 697.673 Q 202.288 698.102 204.004 698.038 L 204.004 698.038 L 204.004 698.038 Q 205.721 697.974 207.222 697.716 L 207.222 697.716 L 207.265 697.716 L 207.265 697.716 Z  M 228.334 689.349 L 228.334 689.349 Q 227.819 689.048 227.004 688.963 L 227.004 688.963 L 227.004 688.963 Q 226.189 688.877 225.288 688.92 L 225.288 688.92 L 225.288 688.92 Q 224.386 688.963 223.507 689.07 L 223.507 689.07 L 223.507 689.07 Q 222.627 689.177 222.069 689.22 L 222.069 689.22 L 222.069 689.22 Q 221.941 694.198 221.919 699.518 L 221.919 699.518 L 221.919 699.518 Q 221.898 704.839 221.683 709.989 L 221.683 709.989 L 221.683 709.989 Q 221.469 710.975 220.739 711.533 L 220.739 711.533 L 220.739 711.533 Q 220.01 712.091 219.151 712.134 L 219.151 712.134 L 219.151 712.134 Q 218.293 712.177 217.499 711.705 L 217.499 711.705 L 217.499 711.705 Q 216.706 711.233 216.405 710.203 L 216.405 710.203 L 216.405 710.203 Q 215.547 699.518 216.019 689.134 L 216.019 689.134 L 216.019 689.091 L 216.019 689.091 Q 215.375 688.92 214.603 688.855 L 214.603 688.855 L 214.603 688.855 Q 213.831 688.791 213.015 688.791 L 213.015 688.791 L 213.015 688.791 Q 212.2 688.791 211.406 688.834 L 211.406 688.834 L 211.406 688.834 Q 210.612 688.877 209.969 688.877 L 209.969 688.877 L 209.926 688.877 L 209.969 688.92 L 209.969 688.92 Q 210.054 694.584 209.926 700.334 L 209.926 700.334 L 209.926 700.334 Q 209.797 706.084 209.797 711.748 L 209.797 711.748 L 209.797 711.748 Q 209.883 713.722 210.934 715.116 L 210.934 715.116 L 210.934 715.116 Q 211.985 716.511 213.552 717.348 L 213.552 717.348 L 213.552 717.348 Q 215.118 718.184 217.049 718.506 L 217.049 718.506 L 217.049 718.506 Q 218.98 718.828 220.782 718.656 L 220.782 718.656 L 220.782 718.656 Q 223.872 718.356 225.674 716.382 L 225.674 716.382 L 225.674 716.382 Q 227.476 714.408 227.819 711.576 L 227.819 711.576 L 227.819 711.576 Q 228.42 706.041 228.506 700.441 L 228.506 700.441 L 228.506 700.441 Q 228.592 694.841 228.334 689.349 L 228.334 689.349 L 228.334 689.349 Z  M 242.409 702.651 L 242.409 702.651 Q 243.181 700.849 244.211 699.046 L 244.211 699.046 L 244.211 699.046 Q 245.241 697.244 246.292 695.442 L 246.292 695.442 L 246.292 695.442 Q 247.343 693.64 248.266 691.838 L 248.266 691.838 L 248.266 691.838 Q 249.188 690.035 249.703 688.233 L 249.703 688.233 L 249.703 688.233 Q 248.33 688.019 246.785 688.104 L 246.785 688.104 L 246.785 688.104 Q 245.241 688.19 243.868 688.104 L 243.868 688.104 L 243.868 688.104 Q 242.966 689.392 242.258 690.679 L 242.258 690.679 L 242.258 690.679 Q 241.55 691.966 240.885 693.254 L 240.885 693.254 L 240.885 693.254 Q 240.22 694.541 239.491 695.785 L 239.491 695.785 L 239.491 695.785 Q 238.761 697.03 237.86 698.188 L 237.86 698.188 L 237.86 698.188 Q 237.774 698.274 237.71 698.381 L 237.71 698.381 L 237.71 698.381 Q 237.646 698.489 237.646 698.446 L 237.646 698.446 L 237.646 698.446 Q 237.56 696 237.603 693.297 L 237.603 693.297 L 237.603 693.297 Q 237.646 690.593 237.56 688.147 L 237.56 688.147 L 237.56 688.147 Q 236.187 688.147 234.706 688.083 L 234.706 688.083 L 234.706 688.083 Q 233.226 688.019 231.81 688.061 L 231.81 688.061 L 231.81 688.061 Q 231.853 695.571 231.617 703.016 L 231.617 703.016 L 231.617 703.016 Q 231.381 710.461 231.724 717.841 L 231.724 717.841 L 231.724 717.841 Q 232.282 717.97 233.119 718.056 L 233.119 718.056 L 233.119 718.056 Q 233.955 718.141 234.856 718.141 L 234.856 718.141 L 234.856 718.141 Q 235.758 718.141 236.573 718.077 L 236.573 718.077 L 236.573 718.077 Q 237.388 718.013 237.989 717.841 L 237.989 717.841 L 237.989 717.841 Q 237.989 716.64 237.967 715.224 L 237.967 715.224 L 237.967 715.224 Q 237.946 713.807 237.903 712.349 L 237.903 712.349 L 237.903 712.349 Q 237.86 710.89 237.839 709.452 L 237.839 709.452 L 237.839 709.452 Q 237.817 708.015 237.86 706.77 L 237.86 706.77 L 237.86 706.77 Q 238.547 707.972 239.233 709.474 L 239.233 709.474 L 239.233 709.474 Q 239.92 710.975 240.628 712.52 L 240.628 712.52 L 240.628 712.52 Q 241.336 714.065 242.108 715.502 L 242.108 715.502 L 242.108 715.502 Q 242.881 716.94 243.782 717.97 L 243.782 717.97 L 243.782 717.97 Q 245.155 718.013 246.764 718.098 L 246.764 718.098 L 246.764 718.098 Q 248.373 718.184 249.746 717.884 L 249.746 717.884 L 242.409 702.651 L 242.409 702.651 Z  M 258.071 687.89 L 258.071 687.89 Q 256.14 687.933 255.131 687.868 L 255.131 687.868 L 255.131 687.868 Q 254.123 687.804 253.351 687.761 L 253.351 687.761 L 253.351 687.761 Q 253.05 687.761 252.428 687.697 L 252.428 687.697 L 252.428 687.697 Q 251.806 687.632 251.591 687.675 L 251.591 687.675 L 251.591 687.761 L 251.591 687.761 Q 251.205 691.366 251.227 695.12 L 251.227 695.12 L 251.227 695.12 Q 251.248 698.875 251.355 702.715 L 251.355 702.715 L 251.355 702.715 Q 251.463 706.556 251.506 710.461 L 251.506 710.461 L 251.506 710.461 Q 251.548 714.365 251.248 718.227 L 251.248 718.227 L 251.248 718.227 Q 251.677 718.098 252.836 718.163 L 252.836 718.163 L 252.836 718.163 Q 253.994 718.227 255.26 718.27 L 255.26 718.27 L 255.26 718.27 Q 256.526 718.313 257.62 718.249 L 257.62 718.249 L 257.62 718.249 Q 258.714 718.184 259.058 717.841 L 259.058 717.841 L 259.058 717.841 Q 258.843 714.194 258.8 710.461 L 258.8 710.461 L 258.8 710.461 Q 258.757 706.727 258.822 702.973 L 258.822 702.973 L 258.822 702.973 Q 258.886 699.218 258.993 695.485 L 258.993 695.485 L 258.993 695.485 Q 259.101 691.752 259.101 688.061 L 259.101 688.061 L 259.101 687.89 L 258.071 687.89 L 258.071 687.89 Z " fill="rgb(0,0,0)"/><path d=" M 321.015 712.863 C 322.124 712.33 325.659 710.838 329.437 714.357 C 333.214 717.876 339.002 721.803 344.514 720.741 C 350.491 726.785 357.622 725.359 362.036 720.741 C 366.315 721.963 377.045 723.05 381.052 715.579 C 383.156 717.954 388.467 721.286 394.228 717.345 C 399.989 713.404 402.005 706.556 396.537 702.404 C 398.627 700.238 396.265 686.874 382.682 691.537 C 376.265 676.716 353.088 680.112 350.083 692.896 C 347.025 692.774 340.114 694.333 339.081 704.17 C 336.284 712.764 333.304 711.608 332.018 710.282 C 328.899 707.068 323.3 704.51 321.015 712.863 Z " fill="rgb(255,0,55)"/><path d=" M 367.469 694.99 L 368.556 700.547 Q 374.964 704.445 379.919 699.324 Q 384.873 694.204 381.46 694.99 C 376.162 702.652 370.05 701.158 367.469 694.99 Z " fill="rgb(147,43,43)"/><path d=" M 364.138 716.846 L 362.956 719.636 Q 373.943 723.841 378.897 718.72 Q 383.852 713.599 382.526 711.82 C 374.816 720.325 370.441 718.308 364.138 716.846 Z " fill="rgb(147,43,43)"/><path d=" M 345.329 715.718 L 345.329 721.273 Q 355.723 727.4 360.678 722.279 Q 365.632 717.159 363.666 713.945 C 359.298 724.65 348.22 722.673 345.329 715.718 Z " fill="rgb(147,43,43)"/><path d=" M 397.08 702.375 C 396.341 699.637 393.737 698.815 389.745 700.547 Q 386.219 702.076 387.989 706.906 C 387.386 702.331 393.941 700.018 397.08 702.375 Z " fill="rgb(147,43,43)"/><path d=" M 322.781 712.364 L 330.523 715.718 Q 337.564 721.185 343.971 720.537 C 346.868 720.244 344.327 717.882 345.329 716.167 Q 345.149 715.46 344.786 714.458 C 340.418 725.163 331.841 710.743 322.781 712.364 Z " fill="rgb(147,43,43)"/><path d=" M 381.864 714.401 L 380.238 717.631 Q 390.422 720.712 395.315 715.679 Q 400.208 710.645 398.574 706.116 C 396.849 714.966 387.22 718.197 381.864 714.401 Z " fill="rgb(147,43,43)"/><path d=" M 363.074 710.055 C 362.708 707.157 362.021 705.672 361.357 704.893 C 362.416 705.421 363.104 706.252 364.074 707.881 C 365.043 709.511 364.974 710.893 364.821 715.123 C 364.667 719.353 360.841 724.868 354.715 725.283 C 348.589 725.697 343.186 722.31 343.971 716.494 C 344.756 710.679 347.22 709.505 351.985 708.832 C 356.75 708.159 357.833 713.324 354.719 715.885 C 354.981 713.218 356.046 710.48 351.985 711.107 C 347.924 711.735 346.083 712.732 345.736 716.486 C 345.39 720.241 346.711 723.429 354.719 723.517 C 362.727 723.605 362.962 715.88 363.074 715.123 C 363.185 714.367 363.44 712.952 363.074 710.055 Z " fill="rgb(0,0,0)"/><path d=" M 350.77 693.788 L 349.127 693.143 Q 353.058 683.743 364.372 681.488 C 375.686 679.234 379.977 686.286 380.831 687.371 C 387.016 696.815 379.464 702.169 374.034 702.405 C 368.604 702.641 365.925 699.183 366.753 694.99 C 367.581 690.797 373.174 688.755 374.921 694.163 C 372.754 692.28 371.744 692.545 370.856 692.629 C 369.967 692.713 368.312 693.284 368.013 695.657 C 367.713 698.03 368.721 701.145 374.034 700.954 C 379.347 700.763 383.339 695.02 379.045 688.13 C 378.303 687.189 374.896 680.667 364.493 683.25 Q 354.09 685.833 350.77 693.788 Z " fill="rgb(0,0,0)"/><path d=" M 393.005 707.182 C 393.218 708.329 390.631 708.988 389.61 708.459 C 384.141 705.626 388.718 700.852 393.232 700.609 C 399.512 700.271 401.749 707.792 399.661 711.413 C 396.452 716.977 394.295 719.084 389.062 719.763 C 385.525 720.221 382.179 719.441 379.045 717.631 L 380.249 716.512 Q 380.795 716.46 381.864 716.982 C 383.656 717.858 385.968 718.554 388.8 718.017 C 391.636 717.479 394.087 717.614 398.167 710.403 C 399.872 707.388 397.238 702.084 393.239 702.375 C 386.848 703.729 389.485 708.418 393.005 707.182 Z " fill="rgb(0,0,0)"/><path d=" M 382.139 711.111 Q 382.424 709.687 382.461 707.474 C 383.445 709.645 383.702 711.259 383.25 712.399 C 382.798 713.54 381.768 717.034 381.74 716.831 C 381.488 717.228 381.204 717.604 380.893 717.955 C 380.578 718.311 380.235 718.641 379.868 718.942 C 379.479 719.261 379.068 719.549 378.634 719.803 C 378.159 720.082 377.665 720.328 377.155 720.537 C 376.952 720.621 376.745 720.7 376.537 720.773 C 376.319 720.851 376.097 720.923 375.874 720.989 C 375.706 721.039 375.539 721.087 375.369 721.132 C 375.194 721.178 375.016 721.221 374.838 721.262 C 374.238 721.399 373.631 721.507 373.018 721.583 C 372.301 721.674 371.578 721.733 370.856 721.763 C 370.587 721.774 370.316 721.781 370.047 721.785 C 369.761 721.789 369.474 721.789 369.188 721.785 C 368.275 721.774 367.362 721.729 366.451 721.652 C 365.354 721.558 364.26 721.432 363.17 721.273 L 362.297 721.145 L 362.552 719.397 L 363.426 719.525 C 364.48 719.68 365.539 719.802 366.601 719.893 C 367.469 719.966 368.339 720.01 369.209 720.021 C 369.481 720.023 369.753 720.023 370.023 720.019 C 370.277 720.017 370.53 720.01 370.784 719.999 C 371.457 719.97 372.13 719.915 372.798 719.83 C 373.352 719.761 373.902 719.665 374.445 719.54 C 374.604 719.504 374.763 719.465 374.921 719.423 C 375.07 719.385 375.218 719.343 375.366 719.298 C 375.562 719.24 375.756 719.176 375.949 719.108 C 376.13 719.045 376.308 718.976 376.483 718.904 C 376.916 718.726 377.336 718.517 377.739 718.281 C 378.094 718.073 378.431 717.838 378.747 717.577 C 379.043 717.335 379.319 717.069 379.572 716.784 C 379.822 716.503 380.048 716.202 380.249 715.885 C 380.457 715.557 381.854 712.536 382.139 711.111 Z " fill="rgb(0,0,0)"/><path d=" M 382.129 693.788 L 381.46 691.676 C 383.345 690.242 391.008 687.87 394.804 693.034 Q 398.6 698.198 396.809 702.404 L 394.804 702.255 Q 397.243 698.295 393.005 694.167 Q 388.768 690.039 382.129 693.788 Z " fill="rgb(0,0,0)"/><path d=" M 345.329 718.904 L 345.899 721.785 Q 337.249 722.554 331.215 717.27 C 325.181 711.987 320.536 715.438 320.514 715.205 C 320.43 714.312 321.077 706.643 326.257 707.126 C 331.437 707.609 331.116 710.757 334.191 710.462 C 337.265 710.168 338.584 694.961 345.899 693.162 C 353.215 691.362 354.36 692.441 355.516 692.896 C 356.673 693.351 357.178 694.947 357.825 696.476 C 357.018 695.455 356.304 694.708 354.719 694.163 C 353.134 693.617 352.887 693.02 346.312 694.878 C 339.738 696.737 338.44 712.59 334.191 711.956 C 329.941 711.322 329.594 708.683 326.125 709.028 C 322.657 709.373 322.438 711.928 322.374 712.228 C 322.42 712.217 325.368 710.437 332.119 715.754 Q 338.871 721.071 345.329 718.904 Z " fill="rgb(0,0,0)"/></g></g></g></g></g></svg>