<?xml version="1.0" encoding="UTF-8" standalone="no"?>
<!-- Generator: Gravit.io -->
<svg xmlns="http://www.w3.org/2000/svg" xmlns:xlink="http://www.w3.org/1999/xlink" style="isolation:isolate" viewBox="629.158 676.374 287 53.739" width="287pt" height="53.739pt"><g><g><g><path d=" M 799.803 687.049 L 799.803 687.367 L 799.803 687.367 Q 799.621 692.772 799.689 698.133 L 799.689 698.133 L 799.689 698.133 Q 799.757 703.493 799.848 708.58 L 799.848 708.58 L 799.848 708.58 Q 799.803 709.262 799.621 709.875 L 799.621 709.875 L 799.621 709.875 Q 799.439 710.488 799.099 710.965 L 799.099 710.965 L 799.099 710.965 Q 798.758 711.442 798.258 711.669 L 798.258 711.669 L 798.258 711.669 Q 797.759 711.897 797.077 711.76 L 797.077 711.76 L 797.077 711.76 Q 796.26 711.715 795.76 711.17 L 795.76 711.17 L 795.76 711.17 Q 795.26 710.625 794.942 709.83 L 794.942 709.83 L 794.942 709.83 Q 794.624 709.035 794.511 708.149 L 794.511 708.149 L 794.511 708.149 Q 794.397 707.263 794.352 706.582 L 794.352 706.582 L 794.352 706.355 L 794.352 706.309 L 794.352 706.309 Q 793.534 706.173 792.557 706.082 L 792.557 706.082 L 792.557 706.082 Q 791.581 705.991 790.627 705.991 L 790.627 705.991 L 790.627 705.991 Q 789.673 705.991 788.787 706.037 L 788.787 706.037 L 788.787 706.037 Q 787.901 706.082 787.311 706.218 L 787.311 706.218 L 787.311 706.218 Q 787.22 707.945 787.379 710.011 L 787.379 710.011 L 787.379 710.011 Q 787.538 712.078 788.128 713.963 L 788.128 713.963 L 788.128 713.963 Q 788.719 715.849 789.855 717.302 L 789.855 717.302 L 789.855 717.302 Q 790.99 718.756 792.853 719.301 L 792.853 719.301 L 792.853 719.301 Q 794.897 719.755 797.168 719.642 L 797.168 719.642 L 797.168 719.642 Q 799.439 719.528 801.347 718.574 L 801.347 718.574 L 801.347 718.574 Q 803.437 717.802 804.504 716.167 L 804.504 716.167 L 804.504 716.167 Q 805.572 714.531 806.004 712.533 L 806.004 712.533 L 806.004 712.533 Q 806.435 710.534 806.48 708.376 L 806.48 708.376 L 806.48 708.376 Q 806.526 706.218 806.617 704.356 L 806.617 704.356 L 806.617 704.356 Q 806.708 699.95 806.526 695.589 L 806.526 695.589 L 806.526 695.589 Q 806.344 691.228 806.435 686.958 L 806.435 686.958 L 799.803 687.049 L 799.803 687.049 Z  M 829.193 697.769 L 829.193 697.769 Q 829.829 694.362 828.648 692.136 L 828.648 692.136 L 828.648 692.136 Q 827.467 689.91 825.287 688.775 L 825.287 688.775 L 825.287 688.775 Q 824.197 688.275 822.902 687.957 L 822.902 687.957 L 822.902 687.957 Q 821.607 687.639 820.267 687.571 L 820.267 687.571 L 820.267 687.571 Q 818.927 687.503 817.61 687.662 L 817.61 687.662 L 817.61 687.662 Q 816.292 687.821 815.202 688.275 L 815.202 688.275 L 815.202 688.275 Q 813.022 689.184 811.5 691.046 L 811.5 691.046 L 811.5 691.046 Q 809.978 692.909 809.433 695.18 L 809.433 695.18 L 809.433 695.18 Q 808.888 697.451 809.501 699.859 L 809.501 699.859 L 809.501 699.859 Q 810.115 702.266 812.204 704.265 L 812.204 704.265 L 812.204 704.265 Q 812.84 704.81 813.612 705.219 L 813.612 705.219 L 813.612 705.219 Q 814.385 705.628 815.293 705.81 L 815.293 705.81 L 815.293 705.81 Q 816.247 705.991 817.337 706.196 L 817.337 706.196 L 817.337 706.196 Q 818.427 706.4 819.359 706.809 L 819.359 706.809 L 819.359 706.809 Q 820.29 707.218 820.971 707.876 L 820.971 707.876 L 820.971 707.876 Q 821.653 708.535 821.789 709.625 L 821.789 709.625 L 821.789 709.625 Q 822.062 711.215 821.176 711.987 L 821.176 711.987 L 821.176 711.987 Q 820.29 712.76 819.086 712.782 L 819.086 712.782 L 819.086 712.782 Q 817.882 712.805 816.815 712.078 L 816.815 712.078 L 816.815 712.078 Q 815.747 711.351 815.656 709.898 L 815.656 709.898 L 815.656 709.898 Q 814.112 709.943 812.204 709.83 L 812.204 709.83 L 812.204 709.83 Q 810.296 709.716 808.706 709.943 L 808.706 709.943 L 808.706 710.08 L 808.706 710.216 L 808.706 710.216 Q 808.57 712.396 809.479 714.1 L 809.479 714.1 L 809.479 714.1 Q 810.387 715.803 811.932 716.984 L 811.932 716.984 L 811.932 716.984 Q 813.476 718.165 815.452 718.824 L 815.452 718.824 L 815.452 718.824 Q 817.428 719.483 819.427 719.528 L 819.427 719.528 L 819.427 719.528 Q 820.835 719.574 822.175 719.278 L 822.175 719.278 L 822.175 719.278 Q 823.515 718.983 824.674 718.347 L 824.674 718.347 L 824.674 718.347 Q 825.832 717.711 826.74 716.712 L 826.74 716.712 L 826.74 716.712 Q 827.649 715.712 828.194 714.304 L 828.194 714.304 L 828.194 714.304 Q 828.739 713.123 828.989 711.828 L 828.989 711.828 L 828.989 711.828 Q 829.239 710.534 829.171 709.262 L 829.171 709.262 L 829.171 709.262 Q 829.103 707.99 828.694 706.786 L 828.694 706.786 L 828.694 706.786 Q 828.285 705.582 827.467 704.538 L 827.467 704.538 L 827.467 704.538 Q 826.15 702.584 824.083 701.312 L 824.083 701.312 L 824.083 701.312 Q 822.016 700.04 819.609 699.768 L 819.609 699.768 L 819.609 699.768 Q 818.655 699.632 817.837 699.268 L 817.837 699.268 L 817.837 699.268 Q 817.019 698.905 816.656 697.815 L 816.656 697.815 L 816.656 697.815 Q 816.61 697.497 816.588 697.201 L 816.588 697.201 L 816.588 697.201 Q 816.565 696.906 816.656 696.588 L 816.656 696.588 L 816.656 696.588 Q 816.838 695.316 817.86 694.862 L 817.86 694.862 L 817.86 694.862 Q 818.882 694.408 819.972 694.635 L 819.972 694.635 L 819.972 694.635 Q 821.062 694.862 821.834 695.68 L 821.834 695.68 L 821.834 695.68 Q 822.607 696.497 822.334 697.724 L 822.334 697.724 L 822.334 697.724 Q 823.924 698.178 825.741 698.11 L 825.741 698.11 L 825.741 698.11 Q 827.558 698.042 829.148 697.769 L 829.148 697.769 L 829.193 697.769 L 829.193 697.769 Z " fill="rgb(255,0,55)"/><path d=" M 644.691 702.994 L 644.691 702.994 Q 644.519 702.265 644.219 701.02 L 644.219 701.02 L 644.219 701.02 Q 643.919 699.776 643.575 698.274 L 643.575 698.274 L 643.575 698.274 Q 643.232 696.772 642.867 695.142 L 642.867 695.142 L 642.867 695.142 Q 642.503 693.511 642.181 692.074 L 642.181 692.074 L 642.181 692.074 Q 641.859 690.636 641.58 689.499 L 641.58 689.499 L 641.58 689.499 Q 641.301 688.362 641.173 687.804 L 641.173 687.804 L 641.173 687.804 Q 639.756 687.933 638.877 687.954 L 638.877 687.954 L 638.877 687.954 Q 637.997 687.976 637.439 687.976 L 637.439 687.976 L 637.439 687.976 Q 636.882 687.976 636.538 687.976 L 636.538 687.976 L 636.538 687.976 Q 636.195 687.976 635.895 688.019 L 635.895 688.019 L 635.895 688.019 Q 634.865 691.451 634.007 694.927 L 634.007 694.927 L 634.007 694.927 Q 633.148 698.403 632.419 701.621 L 632.419 701.621 L 632.419 701.621 Q 631.689 704.839 631.153 707.693 L 631.153 707.693 L 631.153 707.693 Q 630.617 710.546 630.23 712.735 L 630.23 712.735 L 630.23 712.735 Q 629.844 714.923 629.63 716.296 L 629.63 716.296 L 629.63 716.296 Q 629.415 717.669 629.329 717.97 L 629.329 717.97 L 629.329 717.97 Q 629.372 718.013 629.415 718.013 L 629.415 718.013 L 629.415 718.013 Q 632.333 717.97 633.706 718.056 L 633.706 718.056 L 633.706 718.056 Q 635.079 718.141 635.423 718.056 L 635.423 718.056 L 635.423 718.056 Q 635.465 718.056 635.487 718.034 L 635.487 718.034 L 635.487 718.034 Q 635.508 718.013 635.551 718.013 L 635.551 718.013 L 635.551 718.013 Q 635.937 717.283 636.152 716.339 L 636.152 716.339 L 636.152 716.339 Q 636.367 715.395 636.56 714.387 L 636.56 714.387 L 636.56 714.387 Q 636.753 713.378 636.946 712.456 L 636.946 712.456 L 636.946 712.456 Q 637.139 711.533 637.439 710.847 L 637.439 710.847 L 637.439 710.847 Q 637.911 710.847 638.19 710.825 L 638.19 710.825 L 638.19 710.825 Q 638.469 710.804 638.705 710.804 L 638.705 710.804 L 638.705 710.804 Q 638.941 710.804 639.242 710.804 L 639.242 710.804 L 639.242 710.804 Q 639.542 710.804 640.1 710.89 L 640.1 710.89 L 640.1 710.89 Q 640.4 711.533 640.658 712.434 L 640.658 712.434 L 640.658 712.434 Q 640.915 713.335 641.151 714.322 L 641.151 714.322 L 641.151 714.322 Q 641.387 715.309 641.623 716.253 L 641.623 716.253 L 641.623 716.253 Q 641.859 717.197 642.117 717.884 L 642.117 717.884 L 642.159 717.884 L 642.159 717.884 Q 643.533 718.184 645.077 718.249 L 645.077 718.249 L 645.077 718.249 Q 646.622 718.313 647.909 718.056 L 647.909 718.056 L 647.909 718.013 L 644.691 702.994 L 644.691 702.994 Z  M 640.314 705.783 L 640.314 705.783 Q 639.499 705.783 638.684 705.805 L 638.684 705.805 L 638.684 705.805 Q 637.868 705.826 637.139 705.783 L 637.139 705.783 L 637.139 705.783 Q 637.439 703.595 637.675 701.707 L 637.675 701.707 L 637.675 701.707 Q 637.911 699.819 638.104 698.574 L 638.104 698.574 L 638.104 698.574 Q 638.298 697.33 638.534 696.922 L 638.534 696.922 L 638.534 696.922 Q 638.77 696.515 639.006 697.244 L 639.006 697.244 L 639.006 697.244 Q 639.242 697.974 639.563 700.033 L 639.563 700.033 L 639.563 700.033 Q 639.885 702.093 640.314 705.783 L 640.314 705.783 L 640.314 705.783 Z  M 660.31 702.651 L 660.31 702.651 Q 661.083 700.849 662.113 699.046 L 662.113 699.046 L 662.113 699.046 Q 663.142 697.244 664.194 695.442 L 664.194 695.442 L 664.194 695.442 Q 665.245 693.64 666.168 691.838 L 666.168 691.838 L 666.168 691.838 Q 667.09 690.035 667.605 688.233 L 667.605 688.233 L 667.605 688.233 Q 666.232 688.019 664.687 688.104 L 664.687 688.104 L 664.687 688.104 Q 663.142 688.19 661.769 688.104 L 661.769 688.104 L 661.769 688.104 Q 660.868 689.392 660.16 690.679 L 660.16 690.679 L 660.16 690.679 Q 659.452 691.966 658.787 693.254 L 658.787 693.254 L 658.787 693.254 Q 658.122 694.541 657.392 695.785 L 657.392 695.785 L 657.392 695.785 Q 656.663 697.03 655.762 698.188 L 655.762 698.188 L 655.762 698.188 Q 655.676 698.274 655.612 698.381 L 655.612 698.381 L 655.612 698.381 Q 655.547 698.489 655.547 698.446 L 655.547 698.446 L 655.547 698.446 Q 655.462 696 655.504 693.297 L 655.504 693.297 L 655.504 693.297 Q 655.547 690.593 655.462 688.147 L 655.462 688.147 L 655.462 688.147 Q 654.088 688.147 652.608 688.083 L 652.608 688.083 L 652.608 688.083 Q 651.128 688.019 649.712 688.061 L 649.712 688.061 L 649.712 688.061 Q 649.755 695.571 649.519 703.016 L 649.519 703.016 L 649.519 703.016 Q 649.282 710.461 649.626 717.841 L 649.626 717.841 L 649.626 717.841 Q 650.184 717.97 651.02 718.056 L 651.02 718.056 L 651.02 718.056 Q 651.857 718.141 652.758 718.141 L 652.758 718.141 L 652.758 718.141 Q 653.659 718.141 654.475 718.077 L 654.475 718.077 L 654.475 718.077 Q 655.29 718.013 655.891 717.841 L 655.891 717.841 L 655.891 717.841 Q 655.891 716.64 655.869 715.224 L 655.869 715.224 L 655.869 715.224 Q 655.848 713.807 655.805 712.349 L 655.805 712.349 L 655.805 712.349 Q 655.762 710.89 655.74 709.452 L 655.74 709.452 L 655.74 709.452 Q 655.719 708.015 655.762 706.77 L 655.762 706.77 L 655.762 706.77 Q 656.448 707.972 657.135 709.474 L 657.135 709.474 L 657.135 709.474 Q 657.822 710.975 658.53 712.52 L 658.53 712.52 L 658.53 712.52 Q 659.238 714.065 660.01 715.502 L 660.01 715.502 L 660.01 715.502 Q 660.782 716.94 661.683 717.97 L 661.683 717.97 L 661.683 717.97 Q 663.057 718.013 664.666 718.098 L 664.666 718.098 L 664.666 718.098 Q 666.275 718.184 667.648 717.884 L 667.648 717.884 L 660.31 702.651 L 660.31 702.651 Z  M 683.01 702.994 L 683.01 702.994 Q 682.838 702.265 682.538 701.02 L 682.538 701.02 L 682.538 701.02 Q 682.237 699.776 681.894 698.274 L 681.894 698.274 L 681.894 698.274 Q 681.551 696.772 681.186 695.142 L 681.186 695.142 L 681.186 695.142 Q 680.821 693.511 680.5 692.074 L 680.5 692.074 L 680.5 692.074 Q 680.178 690.636 679.899 689.499 L 679.899 689.499 L 679.899 689.499 Q 679.62 688.362 679.491 687.804 L 679.491 687.804 L 679.491 687.804 Q 678.075 687.933 677.195 687.954 L 677.195 687.954 L 677.195 687.954 Q 676.316 687.976 675.758 687.976 L 675.758 687.976 L 675.758 687.976 Q 675.2 687.976 674.857 687.976 L 674.857 687.976 L 674.857 687.976 Q 674.514 687.976 674.213 688.019 L 674.213 688.019 L 674.213 688.019 Q 673.183 691.451 672.325 694.927 L 672.325 694.927 L 672.325 694.927 Q 671.467 698.403 670.738 701.621 L 670.738 701.621 L 670.738 701.621 Q 670.008 704.839 669.472 707.693 L 669.472 707.693 L 669.472 707.693 Q 668.935 710.546 668.549 712.735 L 668.549 712.735 L 668.549 712.735 Q 668.163 714.923 667.948 716.296 L 667.948 716.296 L 667.948 716.296 Q 667.734 717.669 667.648 717.97 L 667.648 717.97 L 667.648 717.97 Q 667.691 718.013 667.734 718.013 L 667.734 718.013 L 667.734 718.013 Q 670.652 717.97 672.025 718.056 L 672.025 718.056 L 672.025 718.056 Q 673.398 718.141 673.741 718.056 L 673.741 718.056 L 673.741 718.056 Q 673.784 718.056 673.806 718.034 L 673.806 718.034 L 673.806 718.034 Q 673.827 718.013 673.87 718.013 L 673.87 718.013 L 673.87 718.013 Q 674.256 717.283 674.471 716.339 L 674.471 716.339 L 674.471 716.339 Q 674.685 715.395 674.878 714.387 L 674.878 714.387 L 674.878 714.387 Q 675.071 713.378 675.265 712.456 L 675.265 712.456 L 675.265 712.456 Q 675.458 711.533 675.758 710.847 L 675.758 710.847 L 675.758 710.847 Q 676.23 710.847 676.509 710.825 L 676.509 710.825 L 676.509 710.825 Q 676.788 710.804 677.024 710.804 L 677.024 710.804 L 677.024 710.804 Q 677.26 710.804 677.56 710.804 L 677.56 710.804 L 677.56 710.804 Q 677.861 710.804 678.418 710.89 L 678.418 710.89 L 678.418 710.89 Q 678.719 711.533 678.976 712.434 L 678.976 712.434 L 678.976 712.434 Q 679.234 713.335 679.47 714.322 L 679.47 714.322 L 679.47 714.322 Q 679.706 715.309 679.942 716.253 L 679.942 716.253 L 679.942 716.253 Q 680.178 717.197 680.435 717.884 L 680.435 717.884 L 680.478 717.884 L 680.478 717.884 Q 681.851 718.184 683.396 718.249 L 683.396 718.249 L 683.396 718.249 Q 684.941 718.313 686.228 718.056 L 686.228 718.056 L 686.228 718.013 L 683.01 702.994 L 683.01 702.994 Z  M 678.633 705.783 L 678.633 705.783 Q 677.818 705.783 677.002 705.805 L 677.002 705.805 L 677.002 705.805 Q 676.187 705.826 675.458 705.783 L 675.458 705.783 L 675.458 705.783 Q 675.758 703.595 675.994 701.707 L 675.994 701.707 L 675.994 701.707 Q 676.23 699.819 676.423 698.574 L 676.423 698.574 L 676.423 698.574 Q 676.616 697.33 676.852 696.922 L 676.852 696.922 L 676.852 696.922 Q 677.088 696.515 677.324 697.244 L 677.324 697.244 L 677.324 697.244 Q 677.56 697.974 677.882 700.033 L 677.882 700.033 L 677.882 700.033 Q 678.204 702.093 678.633 705.783 L 678.633 705.783 L 678.633 705.783 Z  M 702.663 688.233 L 702.663 688.233 Q 698.243 687.761 693.587 687.783 L 693.587 687.783 L 693.587 687.783 Q 688.931 687.804 684.555 687.847 L 684.555 687.847 L 684.555 687.847 Q 684.555 687.89 684.576 687.89 L 684.576 687.89 L 684.576 687.89 Q 684.597 687.89 684.597 687.933 L 684.597 687.933 L 684.597 687.933 Q 684.512 688.963 684.512 690.078 L 684.512 690.078 L 684.512 690.078 Q 684.512 691.194 684.533 692.159 L 684.533 692.159 L 684.533 692.159 Q 684.555 693.125 684.619 693.811 L 684.619 693.811 L 684.619 693.811 Q 684.683 694.498 684.769 694.67 L 684.769 694.67 L 684.769 694.67 Q 685.027 694.755 685.67 694.755 L 685.67 694.755 L 685.67 694.755 Q 686.314 694.755 687.086 694.777 L 687.086 694.777 L 687.086 694.777 Q 687.859 694.798 688.631 694.863 L 688.631 694.863 L 688.631 694.863 Q 689.403 694.927 689.918 695.185 L 689.918 695.185 L 689.961 695.227 L 689.961 695.227 Q 690.219 701.235 690.283 705.483 L 690.283 705.483 L 690.283 705.483 Q 690.347 709.731 690.326 712.456 L 690.326 712.456 L 690.326 712.456 Q 690.304 715.181 690.262 716.554 L 690.262 716.554 L 690.262 716.554 Q 690.219 717.927 690.262 718.098 L 690.262 718.098 L 690.262 718.098 Q 691.034 717.97 691.935 717.97 L 691.935 717.97 L 691.935 717.97 Q 692.836 717.97 693.759 717.97 L 693.759 717.97 L 693.759 717.97 Q 694.681 717.97 695.604 717.948 L 695.604 717.948 L 695.604 717.948 Q 696.526 717.927 697.299 717.798 L 697.299 717.798 L 697.299 717.755 L 697.299 717.712 L 697.299 717.712 Q 697.213 713.035 697.17 709.581 L 697.17 709.581 L 697.17 709.581 Q 697.127 706.127 697.084 703.659 L 697.084 703.659 L 697.084 703.659 Q 697.041 701.192 697.02 699.626 L 697.02 699.626 L 697.02 699.626 Q 696.998 698.06 696.998 697.094 L 696.998 697.094 L 696.998 697.094 Q 696.998 696.129 697.02 695.678 L 697.02 695.678 L 697.02 695.678 Q 697.041 695.227 697.084 695.013 L 697.084 695.013 L 697.084 695.013 Q 697.084 694.97 697.106 694.949 L 697.106 694.949 L 697.106 694.949 Q 697.127 694.927 697.127 694.884 L 697.127 694.884 L 697.17 694.884 L 697.256 694.884 L 697.256 694.884 Q 699.273 694.798 700.474 694.755 L 700.474 694.755 L 700.474 694.755 Q 701.676 694.713 702.491 694.884 L 702.491 694.884 L 702.491 694.884 Q 702.705 693.339 702.727 691.494 L 702.727 691.494 L 702.727 691.494 Q 702.748 689.649 702.663 688.233 L 702.663 688.233 L 702.663 688.233 Z  M 723.002 697.716 L 723.002 697.716 Q 723.603 694.498 722.487 692.395 L 722.487 692.395 L 722.487 692.395 Q 721.371 690.293 719.312 689.22 L 719.312 689.22 L 719.312 689.22 Q 718.282 688.748 717.059 688.448 L 717.059 688.448 L 717.059 688.448 Q 715.836 688.147 714.57 688.083 L 714.57 688.083 L 714.57 688.083 Q 713.304 688.019 712.06 688.169 L 712.06 688.169 L 712.06 688.169 Q 710.815 688.319 709.786 688.748 L 709.786 688.748 L 709.786 688.748 Q 707.726 689.606 706.288 691.366 L 706.288 691.366 L 706.288 691.366 Q 704.851 693.125 704.336 695.27 L 704.336 695.27 L 704.336 695.27 Q 703.821 697.416 704.4 699.69 L 704.4 699.69 L 704.4 699.69 Q 704.98 701.964 706.954 703.852 L 706.954 703.852 L 706.954 703.852 Q 707.554 704.367 708.284 704.753 L 708.284 704.753 L 708.284 704.753 Q 709.013 705.14 709.871 705.311 L 709.871 705.311 L 709.871 705.311 Q 710.773 705.483 711.802 705.676 L 711.802 705.676 L 711.802 705.676 Q 712.832 705.869 713.712 706.255 L 713.712 706.255 L 713.712 706.255 Q 714.592 706.642 715.235 707.264 L 715.235 707.264 L 715.235 707.264 Q 715.879 707.886 716.008 708.916 L 716.008 708.916 L 716.008 708.916 Q 716.265 710.418 715.428 711.147 L 715.428 711.147 L 715.428 711.147 Q 714.592 711.877 713.454 711.898 L 713.454 711.898 L 713.454 711.898 Q 712.317 711.919 711.309 711.233 L 711.309 711.233 L 711.309 711.233 Q 710.301 710.546 710.215 709.173 L 710.215 709.173 L 710.215 709.173 Q 708.756 709.216 706.954 709.109 L 706.954 709.109 L 706.954 709.109 Q 705.151 709.002 703.649 709.216 L 703.649 709.216 L 703.649 709.345 L 703.649 709.474 L 703.649 709.474 Q 703.521 711.533 704.379 713.142 L 704.379 713.142 L 704.379 713.142 Q 705.237 714.752 706.696 715.867 L 706.696 715.867 L 706.696 715.867 Q 708.155 716.983 710.022 717.605 L 710.022 717.605 L 710.022 717.605 Q 711.888 718.227 713.776 718.27 L 713.776 718.27 L 713.776 718.27 Q 715.106 718.313 716.372 718.034 L 716.372 718.034 L 716.372 718.034 Q 717.638 717.755 718.732 717.154 L 718.732 717.154 L 718.732 717.154 Q 719.827 716.554 720.685 715.61 L 720.685 715.61 L 720.685 715.61 Q 721.543 714.666 722.058 713.335 L 722.058 713.335 L 722.058 713.335 Q 722.573 712.22 722.809 710.997 L 722.809 710.997 L 722.809 710.997 Q 723.045 709.774 722.98 708.572 L 722.98 708.572 L 722.98 708.572 Q 722.916 707.371 722.53 706.234 L 722.53 706.234 L 722.53 706.234 Q 722.144 705.097 721.371 704.11 L 721.371 704.11 L 721.371 704.11 Q 720.127 702.265 718.175 701.063 L 718.175 701.063 L 718.175 701.063 Q 716.222 699.862 713.948 699.604 L 713.948 699.604 L 713.948 699.604 Q 713.047 699.476 712.274 699.132 L 712.274 699.132 L 712.274 699.132 Q 711.502 698.789 711.159 697.759 L 711.159 697.759 L 711.159 697.759 Q 711.116 697.459 711.094 697.18 L 711.094 697.18 L 711.094 697.18 Q 711.073 696.901 711.159 696.601 L 711.159 696.601 L 711.159 696.601 Q 711.33 695.399 712.296 694.97 L 712.296 694.97 L 712.296 694.97 Q 713.261 694.541 714.291 694.755 L 714.291 694.755 L 714.291 694.755 Q 715.321 694.97 716.05 695.742 L 716.05 695.742 L 716.05 695.742 Q 716.78 696.515 716.522 697.673 L 716.522 697.673 L 716.522 697.673 Q 718.024 698.102 719.741 698.038 L 719.741 698.038 L 719.741 698.038 Q 721.457 697.974 722.959 697.716 L 722.959 697.716 L 723.002 697.716 L 723.002 697.716 Z  M 744.071 689.349 L 744.071 689.349 Q 743.556 689.048 742.741 688.963 L 742.741 688.963 L 742.741 688.963 Q 741.925 688.877 741.024 688.92 L 741.024 688.92 L 741.024 688.92 Q 740.123 688.963 739.243 689.07 L 739.243 689.07 L 739.243 689.07 Q 738.364 689.177 737.806 689.22 L 737.806 689.22 L 737.806 689.22 Q 737.677 694.198 737.656 699.518 L 737.656 699.518 L 737.656 699.518 Q 737.634 704.839 737.42 709.989 L 737.42 709.989 L 737.42 709.989 Q 737.205 710.975 736.476 711.533 L 736.476 711.533 L 736.476 711.533 Q 735.746 712.091 734.888 712.134 L 734.888 712.134 L 734.888 712.134 Q 734.03 712.177 733.236 711.705 L 733.236 711.705 L 733.236 711.705 Q 732.442 711.233 732.142 710.203 L 732.142 710.203 L 732.142 710.203 Q 731.284 699.518 731.756 689.134 L 731.756 689.134 L 731.756 689.091 L 731.756 689.091 Q 731.112 688.92 730.34 688.855 L 730.34 688.855 L 730.34 688.855 Q 729.567 688.791 728.752 688.791 L 728.752 688.791 L 728.752 688.791 Q 727.937 688.791 727.143 688.834 L 727.143 688.834 L 727.143 688.834 Q 726.349 688.877 725.705 688.877 L 725.705 688.877 L 725.662 688.877 L 725.705 688.92 L 725.705 688.92 Q 725.791 694.584 725.662 700.334 L 725.662 700.334 L 725.662 700.334 Q 725.534 706.084 725.534 711.748 L 725.534 711.748 L 725.534 711.748 Q 725.619 713.722 726.671 715.116 L 726.671 715.116 L 726.671 715.116 Q 727.722 716.511 729.288 717.348 L 729.288 717.348 L 729.288 717.348 Q 730.854 718.184 732.785 718.506 L 732.785 718.506 L 732.785 718.506 Q 734.716 718.828 736.519 718.656 L 736.519 718.656 L 736.519 718.656 Q 739.608 718.356 741.41 716.382 L 741.41 716.382 L 741.41 716.382 Q 743.213 714.408 743.556 711.576 L 743.556 711.576 L 743.556 711.576 Q 744.157 706.041 744.242 700.441 L 744.242 700.441 L 744.242 700.441 Q 744.328 694.841 744.071 689.349 L 744.071 689.349 L 744.071 689.349 Z  M 758.145 702.651 L 758.145 702.651 Q 758.918 700.849 759.947 699.046 L 759.947 699.046 L 759.947 699.046 Q 760.977 697.244 762.029 695.442 L 762.029 695.442 L 762.029 695.442 Q 763.08 693.64 764.002 691.838 L 764.002 691.838 L 764.002 691.838 Q 764.925 690.035 765.44 688.233 L 765.44 688.233 L 765.44 688.233 Q 764.067 688.019 762.522 688.104 L 762.522 688.104 L 762.522 688.104 Q 760.977 688.19 759.604 688.104 L 759.604 688.104 L 759.604 688.104 Q 758.703 689.392 757.995 690.679 L 757.995 690.679 L 757.995 690.679 Q 757.287 691.966 756.622 693.254 L 756.622 693.254 L 756.622 693.254 Q 755.957 694.541 755.227 695.785 L 755.227 695.785 L 755.227 695.785 Q 754.498 697.03 753.597 698.188 L 753.597 698.188 L 753.597 698.188 Q 753.511 698.274 753.447 698.381 L 753.447 698.381 L 753.447 698.381 Q 753.382 698.489 753.382 698.446 L 753.382 698.446 L 753.382 698.446 Q 753.296 696 753.339 693.297 L 753.339 693.297 L 753.339 693.297 Q 753.382 690.593 753.296 688.147 L 753.296 688.147 L 753.296 688.147 Q 751.923 688.147 750.443 688.083 L 750.443 688.083 L 750.443 688.083 Q 748.962 688.019 747.546 688.061 L 747.546 688.061 L 747.546 688.061 Q 747.589 695.571 747.353 703.016 L 747.353 703.016 L 747.353 703.016 Q 747.117 710.461 747.461 717.841 L 747.461 717.841 L 747.461 717.841 Q 748.018 717.97 748.855 718.056 L 748.855 718.056 L 748.855 718.056 Q 749.692 718.141 750.593 718.141 L 750.593 718.141 L 750.593 718.141 Q 751.494 718.141 752.309 718.077 L 752.309 718.077 L 752.309 718.077 Q 753.125 718.013 753.725 717.841 L 753.725 717.841 L 753.725 717.841 Q 753.725 716.64 753.704 715.224 L 753.704 715.224 L 753.704 715.224 Q 753.683 713.807 753.64 712.349 L 753.64 712.349 L 753.64 712.349 Q 753.597 710.89 753.575 709.452 L 753.575 709.452 L 753.575 709.452 Q 753.554 708.015 753.597 706.77 L 753.597 706.77 L 753.597 706.77 Q 754.283 707.972 754.97 709.474 L 754.97 709.474 L 754.97 709.474 Q 755.656 710.975 756.364 712.52 L 756.364 712.52 L 756.364 712.52 Q 757.072 714.065 757.845 715.502 L 757.845 715.502 L 757.845 715.502 Q 758.617 716.94 759.518 717.97 L 759.518 717.97 L 759.518 717.97 Q 760.891 718.013 762.501 718.098 L 762.501 718.098 L 762.501 718.098 Q 764.11 718.184 765.483 717.884 L 765.483 717.884 L 758.145 702.651 L 758.145 702.651 Z  M 773.807 687.89 L 773.807 687.89 Q 771.876 687.933 770.868 687.868 L 770.868 687.868 L 770.868 687.868 Q 769.86 687.804 769.087 687.761 L 769.087 687.761 L 769.087 687.761 Q 768.787 687.761 768.165 687.697 L 768.165 687.697 L 768.165 687.697 Q 767.542 687.632 767.328 687.675 L 767.328 687.675 L 767.328 687.761 L 767.328 687.761 Q 766.942 691.366 766.963 695.12 L 766.963 695.12 L 766.963 695.12 Q 766.985 698.875 767.092 702.715 L 767.092 702.715 L 767.092 702.715 Q 767.199 706.556 767.242 710.461 L 767.242 710.461 L 767.242 710.461 Q 767.285 714.365 766.985 718.227 L 766.985 718.227 L 766.985 718.227 Q 767.414 718.098 768.572 718.163 L 768.572 718.163 L 768.572 718.163 Q 769.731 718.227 770.997 718.27 L 770.997 718.27 L 770.997 718.27 Q 772.263 718.313 773.357 718.249 L 773.357 718.249 L 773.357 718.249 Q 774.451 718.184 774.794 717.841 L 774.794 717.841 L 774.794 717.841 Q 774.58 714.194 774.537 710.461 L 774.537 710.461 L 774.537 710.461 Q 774.494 706.727 774.558 702.973 L 774.558 702.973 L 774.558 702.973 Q 774.623 699.218 774.73 695.485 L 774.73 695.485 L 774.73 695.485 Q 774.837 691.752 774.837 688.061 L 774.837 688.061 L 774.837 687.89 L 773.807 687.89 L 773.807 687.89 Z " fill="rgb(255,255,255)"/><path d=" M 836.752 712.863 C 837.86 712.33 841.396 710.838 845.173 714.357 C 848.951 717.876 854.739 721.803 860.251 720.741 C 866.227 726.785 873.358 725.359 877.773 720.741 C 882.051 721.963 892.782 723.05 896.789 715.579 C 898.893 717.954 904.203 721.286 909.964 717.345 C 915.725 713.404 917.741 706.556 912.273 702.404 C 914.364 700.238 912.002 686.874 898.419 691.537 C 892.002 676.716 868.824 680.112 865.82 692.896 C 862.761 692.774 855.851 694.333 854.817 704.17 C 852.02 712.764 849.041 711.608 847.754 710.282 C 844.635 707.068 839.037 704.51 836.752 712.863 Z " fill="rgb(255,0,55)"/><path d=" M 883.206 694.99 L 884.292 700.547 Q 890.701 704.445 895.655 699.324 Q 900.609 694.204 897.196 694.99 C 891.899 702.652 885.787 701.158 883.206 694.99 Z " fill="rgb(147,43,43)"/><path d=" M 879.875 716.846 L 878.693 719.636 Q 889.68 723.841 894.634 718.72 Q 899.588 713.599 898.262 711.82 C 890.552 720.325 886.178 718.308 879.875 716.846 Z " fill="rgb(147,43,43)"/><path d=" M 861.066 715.718 L 861.066 721.273 Q 871.46 727.4 876.414 722.279 Q 881.369 717.159 879.403 713.945 C 875.035 724.65 863.957 722.673 861.066 715.718 Z " fill="rgb(147,43,43)"/><path d=" M 912.817 702.375 C 912.078 699.637 909.474 698.815 905.482 700.547 Q 901.956 702.076 903.725 706.906 C 903.123 702.331 909.677 700.018 912.817 702.375 Z " fill="rgb(147,43,43)"/><path d=" M 838.518 712.364 L 846.26 715.718 Q 853.3 721.185 859.707 720.537 C 862.605 720.244 860.064 717.882 861.066 716.167 Q 860.886 715.46 860.522 714.458 C 856.155 725.163 847.577 710.743 838.518 712.364 Z " fill="rgb(147,43,43)"/><path d=" M 897.601 714.401 L 895.975 717.631 Q 906.159 720.712 911.052 715.679 Q 915.944 710.645 914.311 706.116 C 912.585 714.966 902.956 718.197 897.601 714.401 Z " fill="rgb(147,43,43)"/><path d=" M 878.81 710.055 C 878.445 707.157 877.757 705.672 877.093 704.893 C 878.153 705.421 878.841 706.252 879.81 707.881 C 880.779 709.511 880.71 710.893 880.557 715.123 C 880.404 719.353 876.578 724.868 870.451 725.283 C 864.325 725.697 858.922 722.31 859.707 716.494 C 860.492 710.679 862.956 709.505 867.721 708.832 C 872.486 708.159 873.57 713.324 870.455 715.885 C 870.718 713.218 871.782 710.48 867.721 711.107 C 863.66 711.735 861.82 712.732 861.473 716.486 C 861.126 720.241 862.448 723.429 870.455 723.517 C 878.463 723.605 878.699 715.88 878.81 715.123 C 878.922 714.367 879.176 712.952 878.81 710.055 Z " fill="rgb(0,0,0)"/><path d=" M 866.507 693.788 L 864.863 693.143 Q 868.795 683.743 880.109 681.488 C 891.423 679.234 895.714 686.286 896.568 687.371 C 902.752 696.815 895.2 702.169 889.77 702.405 C 884.34 702.641 881.662 699.183 882.49 694.99 C 883.318 690.797 888.911 688.755 890.657 694.163 C 888.49 692.28 887.48 692.545 886.592 692.629 C 885.704 692.713 884.048 693.284 883.749 695.657 C 883.45 698.03 884.458 701.145 889.77 700.954 C 895.083 700.763 899.075 695.02 894.781 688.13 C 894.04 687.189 890.633 680.667 880.23 683.25 Q 869.827 685.833 866.507 693.788 Z " fill="rgb(0,0,0)"/><path d=" M 908.742 707.182 C 908.954 708.329 906.367 708.988 905.346 708.459 C 899.877 705.626 904.455 700.852 908.969 700.609 C 915.249 700.271 917.486 707.792 915.398 711.413 C 912.189 716.977 910.031 719.084 904.799 719.763 C 901.262 720.221 897.916 719.441 894.781 717.631 L 895.986 716.512 Q 896.531 716.46 897.601 716.982 C 899.392 717.858 901.704 718.554 904.537 718.017 C 907.373 717.479 909.824 717.614 913.903 710.403 C 915.609 707.388 912.974 702.084 908.975 702.375 C 902.584 703.729 905.221 708.418 908.742 707.182 Z " fill="rgb(0,0,0)"/><path d=" M 897.875 711.111 Q 898.16 709.687 898.198 707.474 C 899.182 709.645 899.438 711.259 898.987 712.399 C 898.535 713.54 897.505 717.034 897.476 716.831 C 897.225 717.228 896.941 717.604 896.63 717.955 C 896.315 718.311 895.971 718.641 895.604 718.942 C 895.216 719.261 894.804 719.549 894.371 719.803 C 893.896 720.082 893.401 720.328 892.892 720.537 C 892.688 720.621 892.482 720.7 892.274 720.773 C 892.055 720.851 891.834 720.923 891.611 720.989 C 891.443 721.039 891.275 721.087 891.106 721.132 C 890.93 721.178 890.753 721.221 890.575 721.262 C 889.974 721.399 889.367 721.507 888.754 721.583 C 888.037 721.674 887.315 721.733 886.592 721.763 C 886.323 721.774 886.053 721.781 885.784 721.785 C 885.497 721.789 885.211 721.789 884.924 721.785 C 884.011 721.774 883.098 721.729 882.187 721.652 C 881.091 721.558 879.996 721.432 878.907 721.273 L 878.033 721.145 L 878.289 719.397 L 879.162 719.525 C 880.216 719.68 881.276 719.802 882.338 719.893 C 883.206 719.966 884.075 720.01 884.946 720.021 C 885.217 720.023 885.489 720.023 885.759 720.019 C 886.013 720.017 886.266 720.01 886.52 719.999 C 887.194 719.97 887.866 719.915 888.534 719.83 C 889.089 719.761 889.639 719.665 890.182 719.54 C 890.341 719.504 890.5 719.465 890.657 719.423 C 890.807 719.385 890.955 719.343 891.103 719.298 C 891.299 719.24 891.493 719.176 891.686 719.108 C 891.866 719.045 892.044 718.976 892.219 718.904 C 892.653 718.726 893.073 718.517 893.476 718.281 C 893.83 718.073 894.167 717.838 894.484 717.577 C 894.78 717.335 895.056 717.069 895.308 716.784 C 895.558 716.503 895.785 716.202 895.986 715.885 C 896.194 715.557 897.591 712.536 897.875 711.111 Z " fill="rgb(0,0,0)"/><path d=" M 897.866 693.788 L 897.196 691.676 C 899.082 690.242 906.744 687.87 910.54 693.034 Q 914.336 698.198 912.545 702.404 L 910.54 702.255 Q 912.979 698.295 908.742 694.167 Q 904.504 690.039 897.866 693.788 Z " fill="rgb(0,0,0)"/><path d=" M 861.066 718.904 L 861.636 721.785 Q 852.985 722.554 846.951 717.27 C 840.917 711.987 836.272 715.438 836.251 715.205 C 836.167 714.312 836.814 706.643 841.994 707.126 C 847.174 707.609 846.853 710.757 849.927 710.462 C 853.002 710.168 854.32 694.961 861.636 693.162 C 868.952 691.362 870.096 692.441 871.253 692.896 C 872.409 693.351 872.915 694.947 873.562 696.476 C 872.755 695.455 872.04 694.708 870.455 694.163 C 868.871 693.617 868.623 693.02 862.049 694.878 C 855.474 696.737 854.177 712.59 849.927 711.956 C 845.678 711.322 845.33 708.683 841.862 709.028 C 838.393 709.373 838.174 711.928 838.11 712.228 C 838.156 712.217 841.105 710.437 847.856 715.754 Q 854.607 721.071 861.066 718.904 Z " fill="rgb(0,0,0)"/></g></g></g></svg>